<svg width="16" height="16" viewBox="0 0 16 16" fill="none" xmlns="http://www.w3.org/2000/svg">
<g filter="url(#filter0_d_1_1143)">
<mask id="path-1-inside-1_1_1143" fill="white">
<path d="M13.3334 6C13.0873 6 12.8565 6.06706 12.6582 6.18391C12.5837 5.51856 12.0179 5 11.3334 5C11.0078 5 10.7087 5.11784 10.4763 5.31413C10.2429 4.92644 9.81806 4.66666 9.33337 4.66666C9.09087 4.66666 8.863 4.73175 8.66672 4.84569V1.33334C8.66669 0.597969 8.06872 0 7.33337 0C6.59803 0 6.00003 0.597969 6.00003 1.33334V10.2546C6.00003 10.4225 5.88934 10.5088 5.84181 10.5381C5.79428 10.5674 5.66634 10.6276 5.51759 10.5527L3.37697 9.48244C3.18197 9.38478 2.96356 9.33334 2.74547 9.33334C1.96681 9.33334 1.33337 9.96681 1.33337 10.7455V11C1.33337 11.0924 1.37178 11.1807 1.43916 11.2438L5.2865 14.8346C6.09181 15.5859 7.14197 16 8.24319 16H10.3333C12.7227 16 14.6667 14.056 14.6667 11.6667V7.33334C14.6667 6.59797 14.0687 6 13.3334 6ZM14 11.6667C14 13.6885 12.3552 15.3333 10.3334 15.3333H8.24322C7.31156 15.3333 6.4229 14.9831 5.74159 14.347L2.00003 10.8552V10.7455C2.00003 10.3343 2.33434 10 2.74547 10C2.86037 10 2.97594 10.0273 3.07881 10.0788L5.21944 11.1491C5.53162 11.3057 5.89553 11.2884 6.19241 11.1055C6.48928 10.9219 6.66669 10.6038 6.66669 10.2546V1.33334C6.66669 0.965844 6.96584 0.666687 7.33334 0.666687C7.70084 0.666687 8 0.965844 8 1.33334V6.33334C8 6.51759 8.14909 6.66669 8.33334 6.66669C8.51759 6.66669 8.66669 6.51759 8.66669 6.33334V6C8.66669 5.6325 8.96584 5.33334 9.33334 5.33334C9.70084 5.33334 10 5.6325 10 6V6.33334C10 6.334 10 6.33466 10 6.33531V6.33563C10.0013 6.51856 10.1501 6.66669 10.3333 6.66669C10.5176 6.66669 10.6667 6.51759 10.6667 6.33334V6.32812C10.6693 5.96322 10.9681 5.66666 11.3333 5.66666C11.7008 5.66666 12 5.96581 12 6.33331V7.33331C12 7.51756 12.1491 7.66666 12.3333 7.66666C12.5176 7.66666 12.6667 7.51756 12.6667 7.33331C12.6667 6.96581 12.9658 6.66666 13.3333 6.66666C13.7008 6.66666 14 6.96581 14 7.33334V11.6667Z"/>
</mask>
<path d="M13.3334 6C13.0873 6 12.8565 6.06706 12.6582 6.18391C12.5837 5.51856 12.0179 5 11.3334 5C11.0078 5 10.7087 5.11784 10.4763 5.31413C10.2429 4.92644 9.81806 4.66666 9.33337 4.66666C9.09087 4.66666 8.863 4.73175 8.66672 4.84569V1.33334C8.66669 0.597969 8.06872 0 7.33337 0C6.59803 0 6.00003 0.597969 6.00003 1.33334V10.2546C6.00003 10.4225 5.88934 10.5088 5.84181 10.5381C5.79428 10.5674 5.66634 10.6276 5.51759 10.5527L3.37697 9.48244C3.18197 9.38478 2.96356 9.33334 2.74547 9.33334C1.96681 9.33334 1.33337 9.96681 1.33337 10.7455V11C1.33337 11.0924 1.37178 11.1807 1.43916 11.2438L5.2865 14.8346C6.09181 15.5859 7.14197 16 8.24319 16H10.3333C12.7227 16 14.6667 14.056 14.6667 11.6667V7.33334C14.6667 6.59797 14.0687 6 13.3334 6ZM14 11.6667C14 13.6885 12.3552 15.3333 10.3334 15.3333H8.24322C7.31156 15.3333 6.4229 14.9831 5.74159 14.347L2.00003 10.8552V10.7455C2.00003 10.3343 2.33434 10 2.74547 10C2.86037 10 2.97594 10.0273 3.07881 10.0788L5.21944 11.1491C5.53162 11.3057 5.89553 11.2884 6.19241 11.1055C6.48928 10.9219 6.66669 10.6038 6.66669 10.2546V1.33334C6.66669 0.965844 6.96584 0.666687 7.33334 0.666687C7.70084 0.666687 8 0.965844 8 1.33334V6.33334C8 6.51759 8.14909 6.66669 8.33334 6.66669C8.51759 6.66669 8.66669 6.51759 8.66669 6.33334V6C8.66669 5.6325 8.96584 5.33334 9.33334 5.33334C9.70084 5.33334 10 5.6325 10 6V6.33334C10 6.334 10 6.33466 10 6.33531V6.33563C10.0013 6.51856 10.1501 6.66669 10.3333 6.66669C10.5176 6.66669 10.6667 6.51759 10.6667 6.33334V6.32812C10.6693 5.96322 10.9681 5.66666 11.3333 5.66666C11.7008 5.66666 12 5.96581 12 6.33331V7.33331C12 7.51756 12.1491 7.66666 12.3333 7.66666C12.5176 7.66666 12.6667 7.51756 12.6667 7.33331C12.6667 6.96581 12.9658 6.66666 13.3333 6.66666C13.7008 6.66666 14 6.96581 14 7.33334V11.6667Z" fill="black"/>
<path d="M12.6582 6.18391L11.6645 6.29528L11.8364 7.82907L13.166 7.04541L12.6582 6.18391ZM10.4763 5.31413L9.61956 5.82991L10.2249 6.83536L11.1215 6.07811L10.4763 5.31413ZM8.66672 4.84569H7.66672V6.58244L9.16875 5.71054L8.66672 4.84569ZM8.66672 1.33334L9.66672 1.33334L9.66672 1.3333L8.66672 1.33334ZM5.51759 10.5527L5.96721 9.65952L5.96481 9.65832L5.51759 10.5527ZM3.37697 9.48244L2.92918 10.3766L2.92975 10.3769L3.37697 9.48244ZM1.43916 11.2438L0.755258 11.9734L0.756841 11.9749L1.43916 11.2438ZM5.2865 14.8346L4.60419 15.5657L4.60433 15.5658L5.2865 14.8346ZM14.6667 7.33334H13.6667H14.6667ZM5.74159 14.347L6.42403 13.616L6.42388 13.6159L5.74159 14.347ZM2.00003 10.8552H1.00003V11.2897L1.31774 11.5862L2.00003 10.8552ZM3.07881 10.0788L3.52603 9.18435L3.52603 9.18435L3.07881 10.0788ZM5.21944 11.1491L5.66772 10.2552L5.66665 10.2547L5.21944 11.1491ZM6.19241 11.1055L6.71701 11.9568L6.71838 11.956L6.19241 11.1055ZM10 6.33563L8.99997 6.33563L9.00002 6.3428L10 6.33563ZM10.6667 6.32812L9.66669 6.32102V6.32812H10.6667ZM13.3334 5C12.9033 5 12.4978 5.11769 12.1505 5.3224L13.166 7.04541C13.2152 7.01643 13.2713 7 13.3334 7V5ZM13.652 6.07254C13.5215 4.90737 12.5333 4 11.3334 4V6C11.5025 6 11.6459 6.12975 11.6645 6.29528L13.652 6.07254ZM11.3334 4C10.762 4 10.2364 4.20781 9.83105 4.55014L11.1215 6.07811C11.181 6.02788 11.2537 6 11.3334 6V4ZM11.333 4.79834C10.9268 4.12366 10.1842 3.66666 9.33337 3.66666V5.66666C9.45188 5.66666 9.55894 5.72922 9.61956 5.82991L11.333 4.79834ZM9.33337 3.66666C8.90981 3.66666 8.50933 3.78078 8.16469 3.98084L9.16875 5.71054C9.21667 5.68272 9.27194 5.66666 9.33337 5.66666V3.66666ZM9.66672 4.84569V1.33334H7.66672V4.84569H9.66672ZM9.66672 1.3333C9.66666 0.0456975 8.62103 -1 7.33337 -1V1C7.51641 1 7.66671 1.15024 7.66672 1.33339L9.66672 1.3333ZM7.33337 -1C6.04576 -1 5.00003 0.045669 5.00003 1.33334H7.00003C7.00003 1.15027 7.1503 1 7.33337 1V-1ZM5.00003 1.33334V10.2546H7.00003V1.33334H5.00003ZM5.00003 10.2546C5.00003 10.1021 5.05497 9.96334 5.12998 9.86019C5.19625 9.76906 5.26942 9.71622 5.3169 9.68694L6.36672 11.3893C6.53774 11.2838 7.00003 10.9322 7.00003 10.2546H5.00003ZM5.3169 9.68694C5.36611 9.65659 5.44528 9.61598 5.55429 9.59793C5.67778 9.57748 5.8276 9.58925 5.96721 9.65953L5.06798 11.446C5.67363 11.7508 6.19755 11.4936 6.36672 11.3893L5.3169 9.68694ZM5.96481 9.65832L3.82418 8.58801L2.92975 10.3769L5.07038 11.4472L5.96481 9.65832ZM3.82475 8.5883C3.49021 8.42076 3.11842 8.33334 2.74547 8.33334V10.3333C2.8087 10.3333 2.87372 10.3488 2.92918 10.3766L3.82475 8.5883ZM2.74547 8.33334C1.4145 8.33334 0.333374 9.41456 0.333374 10.7455H2.33337C2.33337 10.5191 2.51913 10.3333 2.74547 10.3333V8.33334ZM0.333374 10.7455V11H2.33337V10.7455H0.333374ZM0.333374 11C0.333374 11.3701 0.48709 11.722 0.755259 11.9734L2.12305 10.5142C2.25647 10.6393 2.33337 10.8148 2.33337 11H0.333374ZM0.756841 11.9749L4.60419 15.5657L5.96881 14.1036L2.12147 10.5128L0.756841 11.9749ZM4.60433 15.5658C5.59467 16.4898 6.88857 17 8.24319 17V15C7.39536 15 6.58895 14.6821 5.96867 14.1034L4.60433 15.5658ZM8.24319 17H10.3333V15H8.24319V17ZM10.3333 17C13.2749 17 15.6667 14.6083 15.6667 11.6667H13.6667C13.6667 13.5037 12.1704 15 10.3333 15V17ZM15.6667 11.6667V7.33334H13.6667V11.6667H15.6667ZM15.6667 7.33334C15.6667 6.0457 14.621 5 13.3334 5V7C13.5164 7 13.6667 7.15024 13.6667 7.33334L15.6667 7.33334ZM13 11.6667C13 13.1362 11.8029 14.3333 10.3334 14.3333V16.3333C12.9075 16.3333 15 14.2408 15 11.6667H13ZM10.3334 14.3333H8.24322V16.3333H10.3334V14.3333ZM8.24322 14.3333C7.56489 14.3333 6.92014 14.0792 6.42403 13.616L5.05916 15.0779C5.92567 15.8869 7.05823 16.3333 8.24322 16.3333V14.3333ZM6.42388 13.6159L2.68232 10.1241L1.31774 11.5862L5.05931 15.0781L6.42388 13.6159ZM3.00003 10.8552V10.7455H1.00003V10.8552H3.00003ZM3.00003 10.7455C3.00003 10.8866 2.88666 11 2.74547 11V9C1.78203 9 1.00003 9.78206 1.00003 10.7455H3.00003ZM2.74547 11C2.70469 11 2.66718 10.991 2.6316 10.9732L3.52603 9.18435C3.28469 9.06369 3.01606 9 2.74547 9V11ZM2.6316 10.9732L4.77222 12.0435L5.66665 10.2547L3.52603 9.18435L2.6316 10.9732ZM4.77115 12.043C5.39555 12.3561 6.12746 12.3201 6.71701 11.9568L5.6678 10.2541C5.66656 10.2549 5.66568 10.2553 5.66516 10.2556C5.66489 10.2557 5.6647 10.2558 5.66457 10.2558C5.66445 10.2559 5.66439 10.2559 5.66438 10.2559C5.66438 10.2559 5.66455 10.2558 5.66489 10.2558C5.66523 10.2557 5.66566 10.2557 5.66618 10.2556C5.66728 10.2556 5.66829 10.2557 5.66901 10.2558C5.6698 10.256 5.66941 10.2561 5.66772 10.2552L4.77115 12.043ZM6.71838 11.956C7.30978 11.5902 7.66669 10.9505 7.66669 10.2546H5.66669L5.66644 10.255L6.71838 11.956ZM7.66669 10.2546V1.33334H5.66669V10.2546H7.66669ZM7.66669 1.33334C7.66669 1.51813 7.51813 1.66669 7.33334 1.66669V-0.333313C6.41356 -0.333313 5.66669 0.413559 5.66669 1.33334H7.66669ZM7.33334 1.66669C7.14856 1.66669 7 1.51813 7 1.33334H9C9 0.413559 8.25313 -0.333313 7.33334 -0.333313V1.66669ZM7 1.33334V6.33334H9V1.33334H7ZM7 6.33334C7 7.06988 7.59681 7.66669 8.33334 7.66669V5.66669C8.70138 5.66669 9 5.96531 9 6.33334H7ZM8.33334 7.66669C9.06987 7.66669 9.66669 7.06988 9.66669 6.33334H7.66669C7.66669 5.96531 7.96531 5.66669 8.33334 5.66669V7.66669ZM9.66669 6.33334V6H7.66669V6.33334H9.66669ZM9.66669 6C9.66669 6.18478 9.51813 6.33334 9.33334 6.33334V4.33334C8.41356 4.33334 7.66669 5.08022 7.66669 6H9.66669ZM9.33334 6.33334C9.14856 6.33334 9 6.18479 9 6H11C11 5.08021 10.2531 4.33334 9.33334 4.33334V6.33334ZM9 6V6.33334H11V6H9ZM9 6.33334C9 6.33335 9 6.33335 9 6.33335C9 6.33335 9 6.33335 9 6.33335C9 6.33335 9 6.33335 9 6.33336C9 6.33336 9 6.33336 9 6.33336C9 6.33336 9 6.33336 9 6.33336C9 6.33336 9 6.33337 9 6.33337C9 6.33337 9 6.33337 9 6.33337C9 6.33337 9 6.33337 9 6.33337C9 6.33338 9 6.33338 9 6.33338C9 6.33338 9 6.33338 9 6.33338C9 6.33338 9 6.33338 9 6.33339C9 6.33339 9 6.33339 9 6.33339C9 6.33339 9 6.33339 9 6.33339C9 6.3334 9 6.3334 9 6.3334C9 6.3334 9 6.3334 9 6.3334C9 6.3334 9 6.3334 9 6.33341C9 6.33341 9 6.33341 9 6.33341C9 6.33341 9 6.33341 9 6.33341C9 6.33341 9 6.33342 9 6.33342C9 6.33342 9 6.33342 9 6.33342C9 6.33342 9 6.33342 9 6.33342C9 6.33343 9 6.33343 9 6.33343C9 6.33343 9 6.33343 9 6.33343C9 6.33343 9 6.33343 9 6.33344C9 6.33344 9 6.33344 9 6.33344C9 6.33344 9 6.33344 9 6.33344C9 6.33345 9 6.33345 9 6.33345C9 6.33345 9 6.33345 9 6.33345C9 6.33345 9 6.33345 9 6.33346C9 6.33346 9 6.33346 9 6.33346C9 6.33346 9 6.33346 9 6.33346C9 6.33346 9 6.33347 9 6.33347C9 6.33347 9 6.33347 9 6.33347C9 6.33347 9 6.33347 9 6.33347C9 6.33348 9 6.33348 9 6.33348C9 6.33348 9 6.33348 9 6.33348C9 6.33348 9 6.33348 9 6.33349C9 6.33349 9 6.33349 9 6.33349C9 6.33349 9 6.33349 9 6.33349C9 6.3335 9 6.3335 9 6.3335C9 6.3335 9 6.3335 9 6.3335C9 6.3335 9 6.3335 9 6.33351C9 6.33351 9 6.33351 9 6.33351C9 6.33351 9 6.33351 9 6.33351C9 6.33351 9 6.33352 9 6.33352C9 6.33352 9 6.33352 9 6.33352C9 6.33352 9 6.33352 9 6.33352C9 6.33353 9 6.33353 9 6.33353C9 6.33353 9 6.33353 9 6.33353C9 6.33353 9 6.33353 9 6.33354C9 6.33354 9 6.33354 9 6.33354C9 6.33354 9 6.33354 9 6.33354C9 6.33355 9 6.33355 9 6.33355C9 6.33355 9 6.33355 9 6.33355C9 6.33355 9 6.33355 9 6.33356C9 6.33356 9 6.33356 9 6.33356C9 6.33356 9 6.33356 9 6.33356C9 6.33356 9 6.33357 9 6.33357C9 6.33357 9 6.33357 9 6.33357C9 6.33357 9 6.33357 9 6.33357C9 6.33358 9 6.33358 9 6.33358C9 6.33358 9 6.33358 9 6.33358C9 6.33358 9 6.33358 9 6.33359C9 6.33359 9 6.33359 9 6.33359C9 6.33359 9 6.33359 9 6.33359C9 6.3336 9 6.3336 9 6.3336C9 6.3336 9 6.3336 9 6.3336C9 6.3336 9 6.3336 9 6.33361C9 6.33361 9 6.33361 9 6.33361C9 6.33361 9 6.33361 9 6.33361C9 6.33361 9 6.33362 9 6.33362C9 6.33362 9 6.33362 9 6.33362C9 6.33362 9 6.33362 9 6.33362C9 6.33363 9 6.33363 9 6.33363C9 6.33363 9 6.33363 9 6.33363C9 6.33363 9 6.33363 9 6.33364C9 6.33364 9 6.33364 9 6.33364C9 6.33364 9 6.33364 9 6.33364C9 6.33365 9 6.33365 9 6.33365C9 6.33365 9 6.33365 9 6.33365C9 6.33365 9 6.33365 9 6.33366C9 6.33366 9 6.33366 9 6.33366C9 6.33366 9 6.33366 9 6.33366C9 6.33366 9 6.33367 9 6.33367C9 6.33367 9 6.33367 9 6.33367C9 6.33367 9 6.33367 9 6.33367C9 6.33368 9 6.33368 9 6.33368C9 6.33368 9 6.33368 9 6.33368C9 6.33368 9 6.33368 9 6.33369C9 6.33369 9 6.33369 9 6.33369C9 6.33369 9 6.33369 9 6.33369C9 6.3337 9 6.3337 9 6.3337C9 6.3337 9 6.3337 9 6.3337C9 6.3337 9 6.3337 9 6.33371C9 6.33371 9 6.33371 9 6.33371C9 6.33371 9 6.33371 9 6.33371C9 6.33371 9 6.33372 9 6.33372C9 6.33372 9 6.33372 9 6.33372C9 6.33372 9 6.33372 9 6.33372C9 6.33373 9 6.33373 9 6.33373C9 6.33373 9 6.33373 9 6.33373C9 6.33373 9 6.33373 9 6.33374C9 6.33374 9 6.33374 9 6.33374C9 6.33374 9 6.33374 9 6.33374C9 6.33375 9 6.33375 9 6.33375C9 6.33375 9 6.33375 9 6.33375C9 6.33375 9 6.33375 9 6.33376C9 6.33376 9 6.33376 9 6.33376C9 6.33376 9 6.33376 9 6.33376C9 6.33376 9 6.33377 9 6.33377C9 6.33377 9 6.33377 9 6.33377C9 6.33377 9 6.33377 9 6.33377C9 6.33378 9 6.33378 9 6.33378C9 6.33378 9 6.33378 9 6.33378C9 6.33378 9 6.33378 9 6.33379C9 6.33379 9 6.33379 9 6.33379C9 6.33379 9 6.33379 9 6.33379C9 6.3338 9 6.3338 9 6.3338C9 6.3338 9 6.3338 9 6.3338C9 6.3338 9 6.3338 9 6.33381C9 6.33381 9 6.33381 9 6.33381C9 6.33381 9 6.33381 9 6.33381C9 6.33381 9 6.33382 9 6.33382C9 6.33382 9 6.33382 9 6.33382C9 6.33382 9 6.33382 9 6.33382C9 6.33383 9 6.33383 9 6.33383C9 6.33383 9 6.33383 9 6.33383C9 6.33383 9 6.33383 9 6.33384C9 6.33384 9 6.33384 9 6.33384C9 6.33384 9 6.33384 9 6.33384C9 6.33385 9 6.33385 9 6.33385C9 6.33385 9 6.33385 9 6.33385C9 6.33385 9 6.33385 9 6.33386C9 6.33386 9 6.33386 9 6.33386C9 6.33386 9 6.33386 9 6.33386C9 6.33386 9 6.33387 9 6.33387C9 6.33387 9 6.33387 9 6.33387C9 6.33387 9 6.33387 9 6.33387C9 6.33388 9 6.33388 9 6.33388C9 6.33388 9 6.33388 9 6.33388C9 6.33388 9 6.33388 9 6.33389C9 6.33389 9 6.33389 9 6.33389C9 6.33389 9 6.33389 9 6.33389C9 6.3339 9 6.3339 9 6.3339C9 6.3339 9 6.3339 9 6.3339C9 6.3339 9 6.3339 9 6.33391C9 6.33391 9 6.33391 9 6.33391C9 6.33391 9 6.33391 9 6.33391C9 6.33391 9 6.33392 9 6.33392C9 6.33392 9 6.33392 9 6.33392C9 6.33392 9 6.33392 9 6.33392C9 6.33393 9 6.33393 9 6.33393C9 6.33393 9 6.33393 9 6.33393C9 6.33393 9 6.33393 9 6.33394C9 6.33394 9 6.33394 9 6.33394C9 6.33394 9 6.33394 9 6.33394C9 6.33395 9 6.33395 9 6.33395C9 6.33395 9 6.33395 9 6.33395C9 6.33395 9 6.33395 9 6.33396C9 6.33396 9 6.33396 9 6.33396C9 6.33396 9 6.33396 9 6.33396C9 6.33396 9 6.33397 9 6.33397C9 6.33397 9 6.33397 9 6.33397C9 6.33397 9 6.33397 9 6.33397C9 6.33398 9 6.33398 9 6.33398C9 6.33398 9 6.33398 9 6.33398C9 6.33398 9 6.33398 9 6.33399C9 6.33399 9 6.33399 9 6.33399C9 6.33399 9 6.33399 9 6.33399C9 6.334 9 6.334 9 6.334C9 6.334 9 6.334 9 6.334C9 6.334 9 6.334 9 6.33401C9 6.33401 9 6.33401 9 6.33401C9 6.33401 9 6.33401 9 6.33401C9 6.33401 9 6.33402 9 6.33402C9 6.33402 9 6.33402 9 6.33402C9 6.33402 9 6.33402 9 6.33402C9 6.33403 9 6.33403 9 6.33403C9 6.33403 9 6.33403 9 6.33403C9 6.33403 9 6.33403 9 6.33404C9 6.33404 9 6.33404 9 6.33404C9 6.33404 9 6.33404 9 6.33404C9 6.33404 9 6.33405 9 6.33405C9 6.33405 9 6.33405 9 6.33405C9 6.33405 9 6.33405 9 6.33406C9 6.33406 9 6.33406 9 6.33406C9 6.33406 9 6.33406 9 6.33406C9 6.33406 9 6.33407 9 6.33407C9 6.33407 9 6.33407 9 6.33407C9 6.33407 9 6.33407 9 6.33407C9 6.33408 9 6.33408 9 6.33408C9 6.33408 9 6.33408 9 6.33408C9 6.33408 9 6.33408 9 6.33409C9 6.33409 9 6.33409 9 6.33409C9 6.33409 9 6.33409 9 6.33409C9 6.33409 9 6.3341 9 6.3341C9 6.3341 9 6.3341 9 6.3341C9 6.3341 9 6.3341 9 6.33411C9 6.33411 9 6.33411 9 6.33411C9 6.33411 9 6.33411 9 6.33411C9 6.33411 9 6.33412 9 6.33412C9 6.33412 9 6.33412 9 6.33412C9 6.33412 9 6.33412 9 6.33412C9 6.33413 9 6.33413 9 6.33413C9 6.33413 9 6.33413 9 6.33413C9 6.33413 9 6.33413 9 6.33414C9 6.33414 9 6.33414 9 6.33414C9 6.33414 9 6.33414 9 6.33414C9 6.33414 9 6.33415 9 6.33415C9 6.33415 9 6.33415 9 6.33415C9 6.33415 9 6.33415 9 6.33416C9 6.33416 9 6.33416 9 6.33416C9 6.33416 9 6.33416 9 6.33416C9 6.33416 9 6.33417 9 6.33417C9 6.33417 9 6.33417 9 6.33417C9 6.33417 9 6.33417 9 6.33417C9 6.33418 9 6.33418 9 6.33418C9 6.33418 9 6.33418 9 6.33418C9 6.33418 9 6.33418 9 6.33419C9 6.33419 9 6.33419 9 6.33419C9 6.33419 9 6.33419 9 6.33419C9 6.33419 9 6.3342 9 6.3342C9 6.3342 9 6.3342 9 6.3342C9 6.3342 9 6.3342 9 6.33421C9 6.33421 9 6.33421 9 6.33421C9 6.33421 9 6.33421 9 6.33421C9 6.33421 9 6.33422 9 6.33422C9 6.33422 9 6.33422 9 6.33422C9 6.33422 9 6.33422 9 6.33422C9 6.33423 9 6.33423 9 6.33423C9 6.33423 9 6.33423 9 6.33423C9 6.33423 9 6.33423 9 6.33424C9 6.33424 9 6.33424 9 6.33424C9 6.33424 9 6.33424 9 6.33424C9 6.33424 9 6.33425 9 6.33425C9 6.33425 9 6.33425 9 6.33425C9 6.33425 9 6.33425 9 6.33426C9 6.33426 9 6.33426 9 6.33426C9 6.33426 9 6.33426 9 6.33426C9 6.33426 9 6.33427 9 6.33427C9 6.33427 9 6.33427 9 6.33427C9 6.33427 9 6.33427 9 6.33427C9 6.33428 9 6.33428 9 6.33428C9 6.33428 9 6.33428 9 6.33428C9 6.33428 9 6.33428 9 6.33429C9 6.33429 9 6.33429 9 6.33429C9 6.33429 9 6.33429 9 6.33429C9 6.33429 9 6.3343 9 6.3343C9 6.3343 9 6.3343 9 6.3343C9 6.3343 9 6.3343 9 6.33431C9 6.33431 9 6.33431 9 6.33431C9 6.33431 9 6.33431 9 6.33431C9 6.33431 9 6.33432 9 6.33432C9 6.33432 9 6.33432 9 6.33432C9 6.33432 9 6.33432 9 6.33432C9 6.33433 9 6.33433 9 6.33433C9 6.33433 9 6.33433 9 6.33433C9 6.33433 9 6.33433 9 6.33434C9 6.33434 9 6.33434 9 6.33434C9 6.33434 9 6.33434 9 6.33434C9 6.33434 9 6.33435 9 6.33435C9 6.33435 9 6.33435 9 6.33435C9 6.33435 9 6.33435 9 6.33436C9 6.33436 9 6.33436 9 6.33436C9 6.33436 9 6.33436 9 6.33436C9 6.33436 9 6.33437 9 6.33437C9 6.33437 9 6.33437 9 6.33437C9 6.33437 9 6.33437 9 6.33437C9 6.33438 9 6.33438 9 6.33438C9 6.33438 9 6.33438 9 6.33438C9 6.33438 9 6.33438 9 6.33439C9 6.33439 9 6.33439 9 6.33439C9 6.33439 9 6.33439 9 6.33439C9 6.33439 9 6.3344 9 6.3344C9 6.3344 9 6.3344 9 6.3344C9 6.3344 9 6.3344 9 6.33441C9 6.33441 9 6.33441 9 6.33441C9 6.33441 9 6.33441 9 6.33441C9 6.33441 9 6.33442 9 6.33442C9 6.33442 9 6.33442 9 6.33442C9 6.33442 9 6.33442 9 6.33442C9 6.33443 9 6.33443 9 6.33443C9 6.33443 9 6.33443 9 6.33443C9 6.33443 9 6.33443 9 6.33444C9 6.33444 9 6.33444 9 6.33444C9 6.33444 9 6.33444 9 6.33444C9 6.33444 9 6.33445 9 6.33445C9 6.33445 9 6.33445 9 6.33445C9 6.33445 9 6.33445 9 6.33446C9 6.33446 9 6.33446 9 6.33446C9 6.33446 9 6.33446 9 6.33446C9 6.33446 9 6.33447 9 6.33447C9 6.33447 9 6.33447 9 6.33447C9 6.33447 9 6.33447 9 6.33447C9 6.33448 9 6.33448 9 6.33448C9 6.33448 9 6.33448 9 6.33448C9 6.33448 9 6.33448 9 6.33449C9 6.33449 9 6.33449 9 6.33449C9 6.33449 9 6.33449 9 6.33449C9 6.33449 9 6.3345 9 6.3345C9 6.3345 9 6.3345 9 6.3345C9 6.3345 9 6.3345 9 6.33451C9 6.33451 9 6.33451 9 6.33451C9 6.33451 9 6.33451 9 6.33451C9 6.33451 9 6.33452 9 6.33452C9 6.33452 9 6.33452 9 6.33452C9 6.33452 9 6.33452 9 6.33452C9 6.33453 9 6.33453 9 6.33453C9 6.33453 9 6.33453 9 6.33453C9 6.33453 9 6.33453 9 6.33454C9 6.33454 9 6.33454 9 6.33454C9 6.33454 9 6.33454 9 6.33454C9 6.33454 9 6.33455 9 6.33455C9 6.33455 9 6.33455 9 6.33455C9 6.33455 9 6.33455 9 6.33455C9 6.33456 9 6.33456 9 6.33456C9 6.33456 9 6.33456 9 6.33456C9 6.33456 9 6.33457 9 6.33457C9 6.33457 9 6.33457 9 6.33457C9 6.33457 9 6.33457 9 6.33457C9 6.33458 9 6.33458 9 6.33458C9 6.33458 9 6.33458 9 6.33458C9 6.33458 9 6.33458 9 6.33459C9 6.33459 9 6.33459 9 6.33459C9 6.33459 9 6.33459 9 6.33459C9 6.33459 9 6.3346 9 6.3346C9 6.3346 9 6.3346 9 6.3346C9 6.3346 9 6.3346 9 6.3346C9 6.33461 9 6.33461 9 6.33461C9 6.33461 9 6.33461 9 6.33461C9 6.33461 9 6.33462 9 6.33462C9 6.33462 9 6.33462 9 6.33462C9 6.33462 9 6.33462 9 6.33462C9 6.33463 9 6.33463 9 6.33463C9 6.33463 9 6.33463 9 6.33463C9 6.33463 9 6.33463 9 6.33464C9 6.33464 9 6.33464 9 6.33464C9 6.33464 9 6.33464 9 6.33464C9 6.33464 9 6.33465 9 6.33465C9 6.33465 9 6.33465 9 6.33465C9 6.33465 9 6.33465 9 6.33465C9 6.33466 9 6.33466 9 6.33466C9 6.33466 9 6.33466 9 6.33466C9 6.33466 9 6.33467 9 6.33467C9 6.33467 9 6.33467 9 6.33467C9 6.33467 9 6.33467 9 6.33467C9 6.33468 9 6.33468 9 6.33468C9 6.33468 9 6.33468 9 6.33468C9 6.33468 9 6.33468 9 6.33469C9 6.33469 9 6.33469 9 6.33469C9 6.33469 9 6.33469 9 6.33469C9 6.33469 9 6.3347 9 6.3347C9 6.3347 9 6.3347 9 6.3347C9 6.3347 9 6.3347 9 6.3347C9 6.33471 9 6.33471 9 6.33471C9 6.33471 9 6.33471 9 6.33471C9 6.33471 9 6.33472 9 6.33472C9 6.33472 9 6.33472 9 6.33472C9 6.33472 9 6.33472 9 6.33472C9 6.33473 9 6.33473 9 6.33473C9 6.33473 9 6.33473 9 6.33473C9 6.33473 9 6.33473 9 6.33474C9 6.33474 9 6.33474 9 6.33474C9 6.33474 9 6.33474 9 6.33474C9 6.33474 9 6.33475 9 6.33475C9 6.33475 9 6.33475 9 6.33475C9 6.33475 9 6.33475 9 6.33475C9 6.33476 9 6.33476 9 6.33476C9 6.33476 9 6.33476 9 6.33476C9 6.33476 9 6.33477 9 6.33477C9 6.33477 9 6.33477 9 6.33477C9 6.33477 9 6.33477 9 6.33477C9 6.33478 9 6.33478 9 6.33478C9 6.33478 9 6.33478 9 6.33478C9 6.33478 9 6.33478 9 6.33479C9 6.33479 9 6.33479 9 6.33479C9 6.33479 9 6.33479 9 6.33479C9 6.33479 9 6.3348 9 6.3348C9 6.3348 9 6.3348 9 6.3348C9 6.3348 9 6.3348 9 6.3348C9 6.33481 9 6.33481 9 6.33481C9 6.33481 9 6.33481 9 6.33481C9 6.33481 9 6.33482 9 6.33482C9 6.33482 9 6.33482 9 6.33482C9 6.33482 9 6.33482 9 6.33482C9 6.33483 9 6.33483 9 6.33483C9 6.33483 9 6.33483 9 6.33483C9 6.33483 9 6.33483 9 6.33484C9 6.33484 9 6.33484 9 6.33484C9 6.33484 9 6.33484 9 6.33484C9 6.33484 9 6.33485 9 6.33485C9 6.33485 9 6.33485 9 6.33485C9 6.33485 9 6.33485 9 6.33485C9 6.33486 9 6.33486 9 6.33486C9 6.33486 9 6.33486 9 6.33486C9 6.33486 9 6.33487 9 6.33487C9 6.33487 9 6.33487 9 6.33487C9 6.33487 9 6.33487 9 6.33487C9 6.33488 9 6.33488 9 6.33488C9 6.33488 9 6.33488 9 6.33488C9 6.33488 9 6.33488 9 6.33489C9 6.33489 9 6.33489 9 6.33489C9 6.33489 9 6.33489 9 6.33489C9 6.33489 9 6.3349 9 6.3349C9 6.3349 9 6.3349 9 6.3349C9 6.3349 9 6.3349 9 6.3349C9 6.33491 9 6.33491 9 6.33491C9 6.33491 9 6.33491 9 6.33491C9 6.33491 9 6.33492 9 6.33492C9 6.33492 9 6.33492 9 6.33492C9 6.33492 9 6.33492 9 6.33492C9 6.33493 9 6.33493 9 6.33493C9 6.33493 9 6.33493 9 6.33493C9 6.33493 9 6.33493 9 6.33494C9 6.33494 9 6.33494 9 6.33494C9 6.33494 9 6.33494 9 6.33494C9 6.33494 9 6.33495 9 6.33495C9 6.33495 9 6.33495 9 6.33495C9 6.33495 9 6.33495 9 6.33495C9 6.33496 9 6.33496 9 6.33496C9 6.33496 9 6.33496 9 6.33496C9 6.33496 9 6.33497 9 6.33497C9 6.33497 9 6.33497 9 6.33497C9 6.33497 9 6.33497 9 6.33497C9 6.33498 9 6.33498 9 6.33498C9 6.33498 9 6.33498 9 6.33498C9 6.33498 9 6.33498 9 6.33499C9 6.33499 9 6.33499 9 6.33499C9 6.33499 9 6.33499 9 6.33499C9 6.33499 9 6.335 9 6.335C9 6.335 9 6.335 9 6.335C9 6.335 9 6.335 9 6.335C9 6.33501 9 6.33501 9 6.33501C9 6.33501 9 6.33501 9 6.33501C9 6.33501 9 6.33502 9 6.33502C9 6.33502 9 6.33502 9 6.33502C9 6.33502 9 6.33502 9 6.33502C9 6.33503 9 6.33503 9 6.33503C9 6.33503 9 6.33503 9 6.33503C9 6.33503 9 6.33503 9 6.33504C9 6.33504 9 6.33504 9 6.33504C9 6.33504 9 6.33504 9 6.33504C9 6.33504 9 6.33505 9 6.33505C9 6.33505 9 6.33505 9 6.33505C9 6.33505 9 6.33505 9 6.33505C9 6.33506 9 6.33506 9 6.33506C9 6.33506 9 6.33506 9 6.33506C9 6.33506 9 6.33507 9 6.33507C9 6.33507 9 6.33507 9 6.33507C9 6.33507 9 6.33507 9 6.33507C9 6.33508 9 6.33508 9 6.33508C9 6.33508 9 6.33508 9 6.33508C9 6.33508 9 6.33508 9 6.33509C9 6.33509 9 6.33509 9 6.33509C9 6.33509 9 6.33509 9 6.33509C9 6.33509 9 6.3351 9 6.3351C9 6.3351 9 6.3351 9 6.3351C9 6.3351 9 6.3351 9 6.3351C9 6.33511 9 6.33511 9 6.33511C9 6.33511 9 6.33511 9 6.33511C9 6.33511 9 6.33511 9 6.33512C9 6.33512 9 6.33512 9 6.33512C9 6.33512 9 6.33512 9 6.33512C9 6.33513 9 6.33513 9 6.33513C9 6.33513 9 6.33513 9 6.33513C9 6.33513 9 6.33513 9 6.33514C9 6.33514 9 6.33514 9 6.33514C9 6.33514 9 6.33514 9 6.33514C9 6.33514 9 6.33515 9 6.33515C9 6.33515 9 6.33515 9 6.33515C9 6.33515 9 6.33515 9 6.33515C9 6.33516 9 6.33516 9 6.33516C9 6.33516 9 6.33516 9 6.33516C9 6.33516 9 6.33516 9 6.33517C9 6.33517 9 6.33517 9 6.33517C9 6.33517 9 6.33517 9 6.33517C9 6.33518 9 6.33518 9 6.33518C9 6.33518 9 6.33518 9 6.33518C9 6.33518 9 6.33518 9 6.33519C9 6.33519 9 6.33519 9 6.33519C9 6.33519 9 6.33519 9 6.33519C9 6.33519 9 6.3352 9 6.3352C9 6.3352 9 6.3352 9 6.3352C9 6.3352 9 6.3352 9 6.3352C9 6.33521 9 6.33521 9 6.33521C9 6.33521 9 6.33521 9 6.33521C9 6.33521 9 6.33521 9 6.33522C9 6.33522 9 6.33522 9 6.33522C9 6.33522 9 6.33522 9 6.33522C9 6.33523 9 6.33523 9 6.33523C9 6.33523 9 6.33523 9 6.33523C9 6.33523 9 6.33523 9 6.33524C9 6.33524 9 6.33524 9 6.33524C9 6.33524 9 6.33524 9 6.33524C9 6.33524 9 6.33525 9 6.33525C9 6.33525 9 6.33525 9 6.33525C9 6.33525 9 6.33525 9 6.33525C9 6.33526 9 6.33526 9 6.33526C9 6.33526 9 6.33526 9 6.33526C9 6.33526 9 6.33526 9 6.33527C9 6.33527 9 6.33527 9 6.33527C9 6.33527 9 6.33527 9 6.33527C9 6.33528 9 6.33528 9 6.33528C9 6.33528 9 6.33528 9 6.33528C9 6.33528 9 6.33528 9 6.33529C9 6.33529 9 6.33529 9 6.33529C9 6.33529 9 6.33529 9 6.33529C9 6.33529 9 6.3353 9 6.3353C9 6.3353 9 6.3353 9 6.3353C9 6.3353 9 6.3353 9 6.3353C9 6.33531 9 6.33531 9 6.33531C9 6.33531 9 6.33531 9 6.33531H11C11 6.33531 11 6.33531 11 6.33531C11 6.33531 11 6.33531 11 6.3353C11 6.3353 11 6.3353 11 6.3353C11 6.3353 11 6.3353 11 6.3353C11 6.3353 11 6.33529 11 6.33529C11 6.33529 11 6.33529 11 6.33529C11 6.33529 11 6.33529 11 6.33529C11 6.33528 11 6.33528 11 6.33528C11 6.33528 11 6.33528 11 6.33528C11 6.33528 11 6.33528 11 6.33527C11 6.33527 11 6.33527 11 6.33527C11 6.33527 11 6.33527 11 6.33527C11 6.33526 11 6.33526 11 6.33526C11 6.33526 11 6.33526 11 6.33526C11 6.33526 11 6.33526 11 6.33525C11 6.33525 11 6.33525 11 6.33525C11 6.33525 11 6.33525 11 6.33525C11 6.33525 11 6.33524 11 6.33524C11 6.33524 11 6.33524 11 6.33524C11 6.33524 11 6.33524 11 6.33524C11 6.33523 11 6.33523 11 6.33523C11 6.33523 11 6.33523 11 6.33523C11 6.33523 11 6.33523 11 6.33522C11 6.33522 11 6.33522 11 6.33522C11 6.33522 11 6.33522 11 6.33522C11 6.33521 11 6.33521 11 6.33521C11 6.33521 11 6.33521 11 6.33521C11 6.33521 11 6.33521 11 6.3352C11 6.3352 11 6.3352 11 6.3352C11 6.3352 11 6.3352 11 6.3352C11 6.3352 11 6.33519 11 6.33519C11 6.33519 11 6.33519 11 6.33519C11 6.33519 11 6.33519 11 6.33519C11 6.33518 11 6.33518 11 6.33518C11 6.33518 11 6.33518 11 6.33518C11 6.33518 11 6.33518 11 6.33517C11 6.33517 11 6.33517 11 6.33517C11 6.33517 11 6.33517 11 6.33517C11 6.33516 11 6.33516 11 6.33516C11 6.33516 11 6.33516 11 6.33516C11 6.33516 11 6.33516 11 6.33515C11 6.33515 11 6.33515 11 6.33515C11 6.33515 11 6.33515 11 6.33515C11 6.33515 11 6.33514 11 6.33514C11 6.33514 11 6.33514 11 6.33514C11 6.33514 11 6.33514 11 6.33514C11 6.33513 11 6.33513 11 6.33513C11 6.33513 11 6.33513 11 6.33513C11 6.33513 11 6.33513 11 6.33512C11 6.33512 11 6.33512 11 6.33512C11 6.33512 11 6.33512 11 6.33512C11 6.33511 11 6.33511 11 6.33511C11 6.33511 11 6.33511 11 6.33511C11 6.33511 11 6.33511 11 6.3351C11 6.3351 11 6.3351 11 6.3351C11 6.3351 11 6.3351 11 6.3351C11 6.3351 11 6.33509 11 6.33509C11 6.33509 11 6.33509 11 6.33509C11 6.33509 11 6.33509 11 6.33509C11 6.33508 11 6.33508 11 6.33508C11 6.33508 11 6.33508 11 6.33508C11 6.33508 11 6.33508 11 6.33507C11 6.33507 11 6.33507 11 6.33507C11 6.33507 11 6.33507 11 6.33507C11 6.33507 11 6.33506 11 6.33506C11 6.33506 11 6.33506 11 6.33506C11 6.33506 11 6.33506 11 6.33505C11 6.33505 11 6.33505 11 6.33505C11 6.33505 11 6.33505 11 6.33505C11 6.33505 11 6.33504 11 6.33504C11 6.33504 11 6.33504 11 6.33504C11 6.33504 11 6.33504 11 6.33504C11 6.33503 11 6.33503 11 6.33503C11 6.33503 11 6.33503 11 6.33503C11 6.33503 11 6.33503 11 6.33502C11 6.33502 11 6.33502 11 6.33502C11 6.33502 11 6.33502 11 6.33502C11 6.33502 11 6.33501 11 6.33501C11 6.33501 11 6.33501 11 6.33501C11 6.33501 11 6.33501 11 6.335C11 6.335 11 6.335 11 6.335C11 6.335 11 6.335 11 6.335C11 6.335 11 6.33499 11 6.33499C11 6.33499 11 6.33499 11 6.33499C11 6.33499 11 6.33499 11 6.33499C11 6.33498 11 6.33498 11 6.33498C11 6.33498 11 6.33498 11 6.33498C11 6.33498 11 6.33498 11 6.33497C11 6.33497 11 6.33497 11 6.33497C11 6.33497 11 6.33497 11 6.33497C11 6.33497 11 6.33496 11 6.33496C11 6.33496 11 6.33496 11 6.33496C11 6.33496 11 6.33496 11 6.33495C11 6.33495 11 6.33495 11 6.33495C11 6.33495 11 6.33495 11 6.33495C11 6.33495 11 6.33494 11 6.33494C11 6.33494 11 6.33494 11 6.33494C11 6.33494 11 6.33494 11 6.33494C11 6.33493 11 6.33493 11 6.33493C11 6.33493 11 6.33493 11 6.33493C11 6.33493 11 6.33493 11 6.33492C11 6.33492 11 6.33492 11 6.33492C11 6.33492 11 6.33492 11 6.33492C11 6.33492 11 6.33491 11 6.33491C11 6.33491 11 6.33491 11 6.33491C11 6.33491 11 6.33491 11 6.3349C11 6.3349 11 6.3349 11 6.3349C11 6.3349 11 6.3349 11 6.3349C11 6.3349 11 6.33489 11 6.33489C11 6.33489 11 6.33489 11 6.33489C11 6.33489 11 6.33489 11 6.33489C11 6.33488 11 6.33488 11 6.33488C11 6.33488 11 6.33488 11 6.33488C11 6.33488 11 6.33488 11 6.33487C11 6.33487 11 6.33487 11 6.33487C11 6.33487 11 6.33487 11 6.33487C11 6.33487 11 6.33486 11 6.33486C11 6.33486 11 6.33486 11 6.33486C11 6.33486 11 6.33486 11 6.33485C11 6.33485 11 6.33485 11 6.33485C11 6.33485 11 6.33485 11 6.33485C11 6.33485 11 6.33484 11 6.33484C11 6.33484 11 6.33484 11 6.33484C11 6.33484 11 6.33484 11 6.33484C11 6.33483 11 6.33483 11 6.33483C11 6.33483 11 6.33483 11 6.33483C11 6.33483 11 6.33483 11 6.33482C11 6.33482 11 6.33482 11 6.33482C11 6.33482 11 6.33482 11 6.33482C11 6.33482 11 6.33481 11 6.33481C11 6.33481 11 6.33481 11 6.33481C11 6.33481 11 6.33481 11 6.3348C11 6.3348 11 6.3348 11 6.3348C11 6.3348 11 6.3348 11 6.3348C11 6.3348 11 6.33479 11 6.33479C11 6.33479 11 6.33479 11 6.33479C11 6.33479 11 6.33479 11 6.33479C11 6.33478 11 6.33478 11 6.33478C11 6.33478 11 6.33478 11 6.33478C11 6.33478 11 6.33478 11 6.33477C11 6.33477 11 6.33477 11 6.33477C11 6.33477 11 6.33477 11 6.33477C11 6.33477 11 6.33476 11 6.33476C11 6.33476 11 6.33476 11 6.33476C11 6.33476 11 6.33476 11 6.33475C11 6.33475 11 6.33475 11 6.33475C11 6.33475 11 6.33475 11 6.33475C11 6.33475 11 6.33474 11 6.33474C11 6.33474 11 6.33474 11 6.33474C11 6.33474 11 6.33474 11 6.33474C11 6.33473 11 6.33473 11 6.33473C11 6.33473 11 6.33473 11 6.33473C11 6.33473 11 6.33473 11 6.33472C11 6.33472 11 6.33472 11 6.33472C11 6.33472 11 6.33472 11 6.33472C11 6.33472 11 6.33471 11 6.33471C11 6.33471 11 6.33471 11 6.33471C11 6.33471 11 6.33471 11 6.3347C11 6.3347 11 6.3347 11 6.3347C11 6.3347 11 6.3347 11 6.3347C11 6.3347 11 6.33469 11 6.33469C11 6.33469 11 6.33469 11 6.33469C11 6.33469 11 6.33469 11 6.33469C11 6.33468 11 6.33468 11 6.33468C11 6.33468 11 6.33468 11 6.33468C11 6.33468 11 6.33468 11 6.33467C11 6.33467 11 6.33467 11 6.33467C11 6.33467 11 6.33467 11 6.33467C11 6.33467 11 6.33466 11 6.33466C11 6.33466 11 6.33466 11 6.33466C11 6.33466 11 6.33466 11 6.33465C11 6.33465 11 6.33465 11 6.33465C11 6.33465 11 6.33465 11 6.33465C11 6.33465 11 6.33464 11 6.33464C11 6.33464 11 6.33464 11 6.33464C11 6.33464 11 6.33464 11 6.33464C11 6.33463 11 6.33463 11 6.33463C11 6.33463 11 6.33463 11 6.33463C11 6.33463 11 6.33463 11 6.33462C11 6.33462 11 6.33462 11 6.33462C11 6.33462 11 6.33462 11 6.33462C11 6.33462 11 6.33461 11 6.33461C11 6.33461 11 6.33461 11 6.33461C11 6.33461 11 6.33461 11 6.3346C11 6.3346 11 6.3346 11 6.3346C11 6.3346 11 6.3346 11 6.3346C11 6.3346 11 6.33459 11 6.33459C11 6.33459 11 6.33459 11 6.33459C11 6.33459 11 6.33459 11 6.33459C11 6.33458 11 6.33458 11 6.33458C11 6.33458 11 6.33458 11 6.33458C11 6.33458 11 6.33458 11 6.33457C11 6.33457 11 6.33457 11 6.33457C11 6.33457 11 6.33457 11 6.33457C11 6.33457 11 6.33456 11 6.33456C11 6.33456 11 6.33456 11 6.33456C11 6.33456 11 6.33456 11 6.33455C11 6.33455 11 6.33455 11 6.33455C11 6.33455 11 6.33455 11 6.33455C11 6.33455 11 6.33454 11 6.33454C11 6.33454 11 6.33454 11 6.33454C11 6.33454 11 6.33454 11 6.33454C11 6.33453 11 6.33453 11 6.33453C11 6.33453 11 6.33453 11 6.33453C11 6.33453 11 6.33453 11 6.33452C11 6.33452 11 6.33452 11 6.33452C11 6.33452 11 6.33452 11 6.33452C11 6.33452 11 6.33451 11 6.33451C11 6.33451 11 6.33451 11 6.33451C11 6.33451 11 6.33451 11 6.33451C11 6.3345 11 6.3345 11 6.3345C11 6.3345 11 6.3345 11 6.3345C11 6.3345 11 6.33449 11 6.33449C11 6.33449 11 6.33449 11 6.33449C11 6.33449 11 6.33449 11 6.33449C11 6.33448 11 6.33448 11 6.33448C11 6.33448 11 6.33448 11 6.33448C11 6.33448 11 6.33448 11 6.33447C11 6.33447 11 6.33447 11 6.33447C11 6.33447 11 6.33447 11 6.33447C11 6.33447 11 6.33446 11 6.33446C11 6.33446 11 6.33446 11 6.33446C11 6.33446 11 6.33446 11 6.33446C11 6.33445 11 6.33445 11 6.33445C11 6.33445 11 6.33445 11 6.33445C11 6.33445 11 6.33444 11 6.33444C11 6.33444 11 6.33444 11 6.33444C11 6.33444 11 6.33444 11 6.33444C11 6.33443 11 6.33443 11 6.33443C11 6.33443 11 6.33443 11 6.33443C11 6.33443 11 6.33443 11 6.33442C11 6.33442 11 6.33442 11 6.33442C11 6.33442 11 6.33442 11 6.33442C11 6.33442 11 6.33441 11 6.33441C11 6.33441 11 6.33441 11 6.33441C11 6.33441 11 6.33441 11 6.33441C11 6.3344 11 6.3344 11 6.3344C11 6.3344 11 6.3344 11 6.3344C11 6.3344 11 6.33439 11 6.33439C11 6.33439 11 6.33439 11 6.33439C11 6.33439 11 6.33439 11 6.33439C11 6.33438 11 6.33438 11 6.33438C11 6.33438 11 6.33438 11 6.33438C11 6.33438 11 6.33438 11 6.33437C11 6.33437 11 6.33437 11 6.33437C11 6.33437 11 6.33437 11 6.33437C11 6.33437 11 6.33436 11 6.33436C11 6.33436 11 6.33436 11 6.33436C11 6.33436 11 6.33436 11 6.33436C11 6.33435 11 6.33435 11 6.33435C11 6.33435 11 6.33435 11 6.33435C11 6.33435 11 6.33434 11 6.33434C11 6.33434 11 6.33434 11 6.33434C11 6.33434 11 6.33434 11 6.33434C11 6.33433 11 6.33433 11 6.33433C11 6.33433 11 6.33433 11 6.33433C11 6.33433 11 6.33433 11 6.33432C11 6.33432 11 6.33432 11 6.33432C11 6.33432 11 6.33432 11 6.33432C11 6.33432 11 6.33431 11 6.33431C11 6.33431 11 6.33431 11 6.33431C11 6.33431 11 6.33431 11 6.33431C11 6.3343 11 6.3343 11 6.3343C11 6.3343 11 6.3343 11 6.3343C11 6.3343 11 6.33429 11 6.33429C11 6.33429 11 6.33429 11 6.33429C11 6.33429 11 6.33429 11 6.33429C11 6.33428 11 6.33428 11 6.33428C11 6.33428 11 6.33428 11 6.33428C11 6.33428 11 6.33428 11 6.33427C11 6.33427 11 6.33427 11 6.33427C11 6.33427 11 6.33427 11 6.33427C11 6.33427 11 6.33426 11 6.33426C11 6.33426 11 6.33426 11 6.33426C11 6.33426 11 6.33426 11 6.33426C11 6.33425 11 6.33425 11 6.33425C11 6.33425 11 6.33425 11 6.33425C11 6.33425 11 6.33424 11 6.33424C11 6.33424 11 6.33424 11 6.33424C11 6.33424 11 6.33424 11 6.33424C11 6.33423 11 6.33423 11 6.33423C11 6.33423 11 6.33423 11 6.33423C11 6.33423 11 6.33423 11 6.33422C11 6.33422 11 6.33422 11 6.33422C11 6.33422 11 6.33422 11 6.33422C11 6.33422 11 6.33421 11 6.33421C11 6.33421 11 6.33421 11 6.33421C11 6.33421 11 6.33421 11 6.33421C11 6.3342 11 6.3342 11 6.3342C11 6.3342 11 6.3342 11 6.3342C11 6.3342 11 6.33419 11 6.33419C11 6.33419 11 6.33419 11 6.33419C11 6.33419 11 6.33419 11 6.33419C11 6.33418 11 6.33418 11 6.33418C11 6.33418 11 6.33418 11 6.33418C11 6.33418 11 6.33418 11 6.33417C11 6.33417 11 6.33417 11 6.33417C11 6.33417 11 6.33417 11 6.33417C11 6.33417 11 6.33416 11 6.33416C11 6.33416 11 6.33416 11 6.33416C11 6.33416 11 6.33416 11 6.33416C11 6.33415 11 6.33415 11 6.33415C11 6.33415 11 6.33415 11 6.33415C11 6.33415 11 6.33414 11 6.33414C11 6.33414 11 6.33414 11 6.33414C11 6.33414 11 6.33414 11 6.33414C11 6.33413 11 6.33413 11 6.33413C11 6.33413 11 6.33413 11 6.33413C11 6.33413 11 6.33413 11 6.33412C11 6.33412 11 6.33412 11 6.33412C11 6.33412 11 6.33412 11 6.33412C11 6.33412 11 6.33411 11 6.33411C11 6.33411 11 6.33411 11 6.33411C11 6.33411 11 6.33411 11 6.33411C11 6.3341 11 6.3341 11 6.3341C11 6.3341 11 6.3341 11 6.3341C11 6.3341 11 6.33409 11 6.33409C11 6.33409 11 6.33409 11 6.33409C11 6.33409 11 6.33409 11 6.33409C11 6.33408 11 6.33408 11 6.33408C11 6.33408 11 6.33408 11 6.33408C11 6.33408 11 6.33408 11 6.33407C11 6.33407 11 6.33407 11 6.33407C11 6.33407 11 6.33407 11 6.33407C11 6.33407 11 6.33406 11 6.33406C11 6.33406 11 6.33406 11 6.33406C11 6.33406 11 6.33406 11 6.33406C11 6.33405 11 6.33405 11 6.33405C11 6.33405 11 6.33405 11 6.33405C11 6.33405 11 6.33404 11 6.33404C11 6.33404 11 6.33404 11 6.33404C11 6.33404 11 6.33404 11 6.33404C11 6.33403 11 6.33403 11 6.33403C11 6.33403 11 6.33403 11 6.33403C11 6.33403 11 6.33403 11 6.33402C11 6.33402 11 6.33402 11 6.33402C11 6.33402 11 6.33402 11 6.33402C11 6.33402 11 6.33401 11 6.33401C11 6.33401 11 6.33401 11 6.33401C11 6.33401 11 6.33401 11 6.33401C11 6.334 11 6.334 11 6.334C11 6.334 11 6.334 11 6.334C11 6.334 11 6.334 11 6.33399C11 6.33399 11 6.33399 11 6.33399C11 6.33399 11 6.33399 11 6.33399C11 6.33398 11 6.33398 11 6.33398C11 6.33398 11 6.33398 11 6.33398C11 6.33398 11 6.33398 11 6.33397C11 6.33397 11 6.33397 11 6.33397C11 6.33397 11 6.33397 11 6.33397C11 6.33397 11 6.33396 11 6.33396C11 6.33396 11 6.33396 11 6.33396C11 6.33396 11 6.33396 11 6.33396C11 6.33395 11 6.33395 11 6.33395C11 6.33395 11 6.33395 11 6.33395C11 6.33395 11 6.33395 11 6.33394C11 6.33394 11 6.33394 11 6.33394C11 6.33394 11 6.33394 11 6.33394C11 6.33393 11 6.33393 11 6.33393C11 6.33393 11 6.33393 11 6.33393C11 6.33393 11 6.33393 11 6.33392C11 6.33392 11 6.33392 11 6.33392C11 6.33392 11 6.33392 11 6.33392C11 6.33392 11 6.33391 11 6.33391C11 6.33391 11 6.33391 11 6.33391C11 6.33391 11 6.33391 11 6.33391C11 6.3339 11 6.3339 11 6.3339C11 6.3339 11 6.3339 11 6.3339C11 6.3339 11 6.3339 11 6.33389C11 6.33389 11 6.33389 11 6.33389C11 6.33389 11 6.33389 11 6.33389C11 6.33388 11 6.33388 11 6.33388C11 6.33388 11 6.33388 11 6.33388C11 6.33388 11 6.33388 11 6.33387C11 6.33387 11 6.33387 11 6.33387C11 6.33387 11 6.33387 11 6.33387C11 6.33387 11 6.33386 11 6.33386C11 6.33386 11 6.33386 11 6.33386C11 6.33386 11 6.33386 11 6.33386C11 6.33385 11 6.33385 11 6.33385C11 6.33385 11 6.33385 11 6.33385C11 6.33385 11 6.33385 11 6.33384C11 6.33384 11 6.33384 11 6.33384C11 6.33384 11 6.33384 11 6.33384C11 6.33383 11 6.33383 11 6.33383C11 6.33383 11 6.33383 11 6.33383C11 6.33383 11 6.33383 11 6.33382C11 6.33382 11 6.33382 11 6.33382C11 6.33382 11 6.33382 11 6.33382C11 6.33382 11 6.33381 11 6.33381C11 6.33381 11 6.33381 11 6.33381C11 6.33381 11 6.33381 11 6.33381C11 6.3338 11 6.3338 11 6.3338C11 6.3338 11 6.3338 11 6.3338C11 6.3338 11 6.3338 11 6.33379C11 6.33379 11 6.33379 11 6.33379C11 6.33379 11 6.33379 11 6.33379C11 6.33378 11 6.33378 11 6.33378C11 6.33378 11 6.33378 11 6.33378C11 6.33378 11 6.33378 11 6.33377C11 6.33377 11 6.33377 11 6.33377C11 6.33377 11 6.33377 11 6.33377C11 6.33377 11 6.33376 11 6.33376C11 6.33376 11 6.33376 11 6.33376C11 6.33376 11 6.33376 11 6.33376C11 6.33375 11 6.33375 11 6.33375C11 6.33375 11 6.33375 11 6.33375C11 6.33375 11 6.33375 11 6.33374C11 6.33374 11 6.33374 11 6.33374C11 6.33374 11 6.33374 11 6.33374C11 6.33373 11 6.33373 11 6.33373C11 6.33373 11 6.33373 11 6.33373C11 6.33373 11 6.33373 11 6.33372C11 6.33372 11 6.33372 11 6.33372C11 6.33372 11 6.33372 11 6.33372C11 6.33372 11 6.33371 11 6.33371C11 6.33371 11 6.33371 11 6.33371C11 6.33371 11 6.33371 11 6.33371C11 6.3337 11 6.3337 11 6.3337C11 6.3337 11 6.3337 11 6.3337C11 6.3337 11 6.3337 11 6.33369C11 6.33369 11 6.33369 11 6.33369C11 6.33369 11 6.33369 11 6.33369C11 6.33368 11 6.33368 11 6.33368C11 6.33368 11 6.33368 11 6.33368C11 6.33368 11 6.33368 11 6.33367C11 6.33367 11 6.33367 11 6.33367C11 6.33367 11 6.33367 11 6.33367C11 6.33367 11 6.33366 11 6.33366C11 6.33366 11 6.33366 11 6.33366C11 6.33366 11 6.33366 11 6.33366C11 6.33365 11 6.33365 11 6.33365C11 6.33365 11 6.33365 11 6.33365C11 6.33365 11 6.33365 11 6.33364C11 6.33364 11 6.33364 11 6.33364C11 6.33364 11 6.33364 11 6.33364C11 6.33363 11 6.33363 11 6.33363C11 6.33363 11 6.33363 11 6.33363C11 6.33363 11 6.33363 11 6.33362C11 6.33362 11 6.33362 11 6.33362C11 6.33362 11 6.33362 11 6.33362C11 6.33362 11 6.33361 11 6.33361C11 6.33361 11 6.33361 11 6.33361C11 6.33361 11 6.33361 11 6.33361C11 6.3336 11 6.3336 11 6.3336C11 6.3336 11 6.3336 11 6.3336C11 6.3336 11 6.3336 11 6.33359C11 6.33359 11 6.33359 11 6.33359C11 6.33359 11 6.33359 11 6.33359C11 6.33358 11 6.33358 11 6.33358C11 6.33358 11 6.33358 11 6.33358C11 6.33358 11 6.33358 11 6.33357C11 6.33357 11 6.33357 11 6.33357C11 6.33357 11 6.33357 11 6.33357C11 6.33357 11 6.33356 11 6.33356C11 6.33356 11 6.33356 11 6.33356C11 6.33356 11 6.33356 11 6.33356C11 6.33355 11 6.33355 11 6.33355C11 6.33355 11 6.33355 11 6.33355C11 6.33355 11 6.33355 11 6.33354C11 6.33354 11 6.33354 11 6.33354C11 6.33354 11 6.33354 11 6.33354C11 6.33353 11 6.33353 11 6.33353C11 6.33353 11 6.33353 11 6.33353C11 6.33353 11 6.33353 11 6.33352C11 6.33352 11 6.33352 11 6.33352C11 6.33352 11 6.33352 11 6.33352C11 6.33352 11 6.33351 11 6.33351C11 6.33351 11 6.33351 11 6.33351C11 6.33351 11 6.33351 11 6.33351C11 6.3335 11 6.3335 11 6.3335C11 6.3335 11 6.3335 11 6.3335C11 6.3335 11 6.3335 11 6.33349C11 6.33349 11 6.33349 11 6.33349C11 6.33349 11 6.33349 11 6.33349C11 6.33348 11 6.33348 11 6.33348C11 6.33348 11 6.33348 11 6.33348C11 6.33348 11 6.33348 11 6.33347C11 6.33347 11 6.33347 11 6.33347C11 6.33347 11 6.33347 11 6.33347C11 6.33347 11 6.33346 11 6.33346C11 6.33346 11 6.33346 11 6.33346C11 6.33346 11 6.33346 11 6.33346C11 6.33345 11 6.33345 11 6.33345C11 6.33345 11 6.33345 11 6.33345C11 6.33345 11 6.33345 11 6.33344C11 6.33344 11 6.33344 11 6.33344C11 6.33344 11 6.33344 11 6.33344C11 6.33343 11 6.33343 11 6.33343C11 6.33343 11 6.33343 11 6.33343C11 6.33343 11 6.33343 11 6.33342C11 6.33342 11 6.33342 11 6.33342C11 6.33342 11 6.33342 11 6.33342C11 6.33342 11 6.33341 11 6.33341C11 6.33341 11 6.33341 11 6.33341C11 6.33341 11 6.33341 11 6.33341C11 6.3334 11 6.3334 11 6.3334C11 6.3334 11 6.3334 11 6.3334C11 6.3334 11 6.3334 11 6.33339C11 6.33339 11 6.33339 11 6.33339C11 6.33339 11 6.33339 11 6.33339C11 6.33338 11 6.33338 11 6.33338C11 6.33338 11 6.33338 11 6.33338C11 6.33338 11 6.33338 11 6.33337C11 6.33337 11 6.33337 11 6.33337C11 6.33337 11 6.33337 11 6.33337C11 6.33337 11 6.33336 11 6.33336C11 6.33336 11 6.33336 11 6.33336C11 6.33336 11 6.33336 11 6.33336C11 6.33335 11 6.33335 11 6.33335C11 6.33335 11 6.33335 11 6.33335C11 6.33335 11 6.33335 11 6.33334H9ZM9 6.33531V6.33563H11V6.33531H9ZM9.00002 6.3428C9.00527 7.07415 9.59952 7.66669 10.3333 7.66669V5.66669C10.7006 5.66669 10.9974 5.96298 11 6.32845L9.00002 6.3428ZM10.3333 7.66669C11.0699 7.66669 11.6667 7.06988 11.6667 6.33334H9.66669C9.66669 5.96531 9.96531 5.66669 10.3333 5.66669V7.66669ZM11.6667 6.33334V6.32812H9.66669V6.33334H11.6667ZM11.6667 6.33523C11.6653 6.52044 11.517 6.66666 11.3333 6.66666V4.66666C10.4192 4.66666 9.67322 5.406 9.66671 6.32102L11.6667 6.33523ZM11.3333 6.66666C11.1486 6.66666 11 6.5181 11 6.33331H13C13 5.41353 12.2531 4.66666 11.3333 4.66666V6.66666ZM11 6.33331V7.33331H13V6.33331H11ZM11 7.33331C11 8.06985 11.5968 8.66666 12.3333 8.66666V6.66666C12.7014 6.66666 13 6.96528 13 7.33331H11ZM12.3333 8.66666C13.0699 8.66666 13.6667 8.06985 13.6667 7.33331H11.6667C11.6667 6.96527 11.9653 6.66666 12.3333 6.66666V8.66666ZM13.6667 7.33331C13.6667 7.5181 13.5181 7.66666 13.3333 7.66666V5.66666C12.4136 5.66666 11.6667 6.41353 11.6667 7.33331H13.6667ZM13.3333 7.66666C13.1486 7.66666 13 7.51813 13 7.33334H15C15 6.4135 14.2531 5.66666 13.3333 5.66666V7.66666ZM13 7.33334V11.6667H15V7.33334H13Z" fill="black" mask="url(#path-1-inside-1_1_1143)"/>
<path d="M12.6582 6.18391L11.6645 6.29528L11.8364 7.82907L13.166 7.04541L12.6582 6.18391ZM10.4763 5.31413L9.61956 5.82991L10.2249 6.83536L11.1215 6.07811L10.4763 5.31413ZM8.66672 4.84569H7.66672V6.58244L9.16875 5.71054L8.66672 4.84569ZM8.66672 1.33334L9.66672 1.33334L9.66672 1.3333L8.66672 1.33334ZM5.51759 10.5527L5.96721 9.65952L5.96481 9.65832L5.51759 10.5527ZM3.37697 9.48244L2.92918 10.3766L2.92975 10.3769L3.37697 9.48244ZM1.43916 11.2438L0.755258 11.9734L0.756841 11.9749L1.43916 11.2438ZM5.2865 14.8346L4.60419 15.5657L4.60433 15.5658L5.2865 14.8346ZM14.6667 7.33334H13.6667H14.6667ZM5.74159 14.347L6.42403 13.616L6.42388 13.6159L5.74159 14.347ZM2.00003 10.8552H1.00003V11.2897L1.31774 11.5862L2.00003 10.8552ZM3.07881 10.0788L3.52603 9.18435L3.52603 9.18435L3.07881 10.0788ZM5.21944 11.1491L5.66772 10.2552L5.66665 10.2547L5.21944 11.1491ZM6.19241 11.1055L6.71701 11.9568L6.71838 11.956L6.19241 11.1055ZM10 6.33563L8.99997 6.33563L9.00002 6.3428L10 6.33563ZM10.6667 6.32812L9.66669 6.32102V6.32812H10.6667ZM13.3334 5C12.9033 5 12.4978 5.11769 12.1505 5.3224L13.166 7.04541C13.2152 7.01643 13.2713 7 13.3334 7V5ZM13.652 6.07254C13.5215 4.90737 12.5333 4 11.3334 4V6C11.5025 6 11.6459 6.12975 11.6645 6.29528L13.652 6.07254ZM11.3334 4C10.762 4 10.2364 4.20781 9.83105 4.55014L11.1215 6.07811C11.181 6.02788 11.2537 6 11.3334 6V4ZM11.333 4.79834C10.9268 4.12366 10.1842 3.66666 9.33337 3.66666V5.66666C9.45188 5.66666 9.55894 5.72922 9.61956 5.82991L11.333 4.79834ZM9.33337 3.66666C8.90981 3.66666 8.50933 3.78078 8.16469 3.98084L9.16875 5.71054C9.21667 5.68272 9.27194 5.66666 9.33337 5.66666V3.66666ZM9.66672 4.84569V1.33334H7.66672V4.84569H9.66672ZM9.66672 1.3333C9.66666 0.0456975 8.62103 -1 7.33337 -1V1C7.51641 1 7.66671 1.15024 7.66672 1.33339L9.66672 1.3333ZM7.33337 -1C6.04576 -1 5.00003 0.045669 5.00003 1.33334H7.00003C7.00003 1.15027 7.1503 1 7.33337 1V-1ZM5.00003 1.33334V10.2546H7.00003V1.33334H5.00003ZM5.00003 10.2546C5.00003 10.1021 5.05497 9.96334 5.12998 9.86019C5.19625 9.76906 5.26942 9.71622 5.3169 9.68694L6.36672 11.3893C6.53774 11.2838 7.00003 10.9322 7.00003 10.2546H5.00003ZM5.3169 9.68694C5.36611 9.65659 5.44528 9.61598 5.55429 9.59793C5.67778 9.57748 5.8276 9.58925 5.96721 9.65953L5.06798 11.446C5.67363 11.7508 6.19755 11.4936 6.36672 11.3893L5.3169 9.68694ZM5.96481 9.65832L3.82418 8.58801L2.92975 10.3769L5.07038 11.4472L5.96481 9.65832ZM3.82475 8.5883C3.49021 8.42076 3.11842 8.33334 2.74547 8.33334V10.3333C2.8087 10.3333 2.87372 10.3488 2.92918 10.3766L3.82475 8.5883ZM2.74547 8.33334C1.4145 8.33334 0.333374 9.41456 0.333374 10.7455H2.33337C2.33337 10.5191 2.51913 10.3333 2.74547 10.3333V8.33334ZM0.333374 10.7455V11H2.33337V10.7455H0.333374ZM0.333374 11C0.333374 11.3701 0.48709 11.722 0.755259 11.9734L2.12305 10.5142C2.25647 10.6393 2.33337 10.8148 2.33337 11H0.333374ZM0.756841 11.9749L4.60419 15.5657L5.96881 14.1036L2.12147 10.5128L0.756841 11.9749ZM4.60433 15.5658C5.59467 16.4898 6.88857 17 8.24319 17V15C7.39536 15 6.58895 14.6821 5.96867 14.1034L4.60433 15.5658ZM8.24319 17H10.3333V15H8.24319V17ZM10.3333 17C13.2749 17 15.6667 14.6083 15.6667 11.6667H13.6667C13.6667 13.5037 12.1704 15 10.3333 15V17ZM15.6667 11.6667V7.33334H13.6667V11.6667H15.6667ZM15.6667 7.33334C15.6667 6.0457 14.621 5 13.3334 5V7C13.5164 7 13.6667 7.15024 13.6667 7.33334L15.6667 7.33334ZM13 11.6667C13 13.1362 11.8029 14.3333 10.3334 14.3333V16.3333C12.9075 16.3333 15 14.2408 15 11.6667H13ZM10.3334 14.3333H8.24322V16.3333H10.3334V14.3333ZM8.24322 14.3333C7.56489 14.3333 6.92014 14.0792 6.42403 13.616L5.05916 15.0779C5.92567 15.8869 7.05823 16.3333 8.24322 16.3333V14.3333ZM6.42388 13.6159L2.68232 10.1241L1.31774 11.5862L5.05931 15.0781L6.42388 13.6159ZM3.00003 10.8552V10.7455H1.00003V10.8552H3.00003ZM3.00003 10.7455C3.00003 10.8866 2.88666 11 2.74547 11V9C1.78203 9 1.00003 9.78206 1.00003 10.7455H3.00003ZM2.74547 11C2.70469 11 2.66718 10.991 2.6316 10.9732L3.52603 9.18435C3.28469 9.06369 3.01606 9 2.74547 9V11ZM2.6316 10.9732L4.77222 12.0435L5.66665 10.2547L3.52603 9.18435L2.6316 10.9732ZM4.77115 12.043C5.39555 12.3561 6.12746 12.3201 6.71701 11.9568L5.6678 10.2541C5.66656 10.2549 5.66568 10.2553 5.66516 10.2556C5.66489 10.2557 5.6647 10.2558 5.66457 10.2558C5.66445 10.2559 5.66439 10.2559 5.66438 10.2559C5.66438 10.2559 5.66455 10.2558 5.66489 10.2558C5.66523 10.2557 5.66566 10.2557 5.66618 10.2556C5.66728 10.2556 5.66829 10.2557 5.66901 10.2558C5.6698 10.256 5.66941 10.2561 5.66772 10.2552L4.77115 12.043ZM6.71838 11.956C7.30978 11.5902 7.66669 10.9505 7.66669 10.2546H5.66669L5.66644 10.255L6.71838 11.956ZM7.66669 10.2546V1.33334H5.66669V10.2546H7.66669ZM7.66669 1.33334C7.66669 1.51813 7.51813 1.66669 7.33334 1.66669V-0.333313C6.41356 -0.333313 5.66669 0.413559 5.66669 1.33334H7.66669ZM7.33334 1.66669C7.14856 1.66669 7 1.51813 7 1.33334H9C9 0.413559 8.25313 -0.333313 7.33334 -0.333313V1.66669ZM7 1.33334V6.33334H9V1.33334H7ZM7 6.33334C7 7.06988 7.59681 7.66669 8.33334 7.66669V5.66669C8.70138 5.66669 9 5.96531 9 6.33334H7ZM8.33334 7.66669C9.06987 7.66669 9.66669 7.06988 9.66669 6.33334H7.66669C7.66669 5.96531 7.96531 5.66669 8.33334 5.66669V7.66669ZM9.66669 6.33334V6H7.66669V6.33334H9.66669ZM9.66669 6C9.66669 6.18478 9.51813 6.33334 9.33334 6.33334V4.33334C8.41356 4.33334 7.66669 5.08022 7.66669 6H9.66669ZM9.33334 6.33334C9.14856 6.33334 9 6.18479 9 6H11C11 5.08021 10.2531 4.33334 9.33334 4.33334V6.33334ZM9 6V6.33334H11V6H9ZM9 6.33334C9 6.33335 9 6.33335 9 6.33335C9 6.33335 9 6.33335 9 6.33335C9 6.33335 9 6.33335 9 6.33336C9 6.33336 9 6.33336 9 6.33336C9 6.33336 9 6.33336 9 6.33336C9 6.33336 9 6.33337 9 6.33337C9 6.33337 9 6.33337 9 6.33337C9 6.33337 9 6.33337 9 6.33337C9 6.33338 9 6.33338 9 6.33338C9 6.33338 9 6.33338 9 6.33338C9 6.33338 9 6.33338 9 6.33339C9 6.33339 9 6.33339 9 6.33339C9 6.33339 9 6.33339 9 6.33339C9 6.3334 9 6.3334 9 6.3334C9 6.3334 9 6.3334 9 6.3334C9 6.3334 9 6.3334 9 6.33341C9 6.33341 9 6.33341 9 6.33341C9 6.33341 9 6.33341 9 6.33341C9 6.33341 9 6.33342 9 6.33342C9 6.33342 9 6.33342 9 6.33342C9 6.33342 9 6.33342 9 6.33342C9 6.33343 9 6.33343 9 6.33343C9 6.33343 9 6.33343 9 6.33343C9 6.33343 9 6.33343 9 6.33344C9 6.33344 9 6.33344 9 6.33344C9 6.33344 9 6.33344 9 6.33344C9 6.33345 9 6.33345 9 6.33345C9 6.33345 9 6.33345 9 6.33345C9 6.33345 9 6.33345 9 6.33346C9 6.33346 9 6.33346 9 6.33346C9 6.33346 9 6.33346 9 6.33346C9 6.33346 9 6.33347 9 6.33347C9 6.33347 9 6.33347 9 6.33347C9 6.33347 9 6.33347 9 6.33347C9 6.33348 9 6.33348 9 6.33348C9 6.33348 9 6.33348 9 6.33348C9 6.33348 9 6.33348 9 6.33349C9 6.33349 9 6.33349 9 6.33349C9 6.33349 9 6.33349 9 6.33349C9 6.3335 9 6.3335 9 6.3335C9 6.3335 9 6.3335 9 6.3335C9 6.3335 9 6.3335 9 6.33351C9 6.33351 9 6.33351 9 6.33351C9 6.33351 9 6.33351 9 6.33351C9 6.33351 9 6.33352 9 6.33352C9 6.33352 9 6.33352 9 6.33352C9 6.33352 9 6.33352 9 6.33352C9 6.33353 9 6.33353 9 6.33353C9 6.33353 9 6.33353 9 6.33353C9 6.33353 9 6.33353 9 6.33354C9 6.33354 9 6.33354 9 6.33354C9 6.33354 9 6.33354 9 6.33354C9 6.33355 9 6.33355 9 6.33355C9 6.33355 9 6.33355 9 6.33355C9 6.33355 9 6.33355 9 6.33356C9 6.33356 9 6.33356 9 6.33356C9 6.33356 9 6.33356 9 6.33356C9 6.33356 9 6.33357 9 6.33357C9 6.33357 9 6.33357 9 6.33357C9 6.33357 9 6.33357 9 6.33357C9 6.33358 9 6.33358 9 6.33358C9 6.33358 9 6.33358 9 6.33358C9 6.33358 9 6.33358 9 6.33359C9 6.33359 9 6.33359 9 6.33359C9 6.33359 9 6.33359 9 6.33359C9 6.3336 9 6.3336 9 6.3336C9 6.3336 9 6.3336 9 6.3336C9 6.3336 9 6.3336 9 6.33361C9 6.33361 9 6.33361 9 6.33361C9 6.33361 9 6.33361 9 6.33361C9 6.33361 9 6.33362 9 6.33362C9 6.33362 9 6.33362 9 6.33362C9 6.33362 9 6.33362 9 6.33362C9 6.33363 9 6.33363 9 6.33363C9 6.33363 9 6.33363 9 6.33363C9 6.33363 9 6.33363 9 6.33364C9 6.33364 9 6.33364 9 6.33364C9 6.33364 9 6.33364 9 6.33364C9 6.33365 9 6.33365 9 6.33365C9 6.33365 9 6.33365 9 6.33365C9 6.33365 9 6.33365 9 6.33366C9 6.33366 9 6.33366 9 6.33366C9 6.33366 9 6.33366 9 6.33366C9 6.33366 9 6.33367 9 6.33367C9 6.33367 9 6.33367 9 6.33367C9 6.33367 9 6.33367 9 6.33367C9 6.33368 9 6.33368 9 6.33368C9 6.33368 9 6.33368 9 6.33368C9 6.33368 9 6.33368 9 6.33369C9 6.33369 9 6.33369 9 6.33369C9 6.33369 9 6.33369 9 6.33369C9 6.3337 9 6.3337 9 6.3337C9 6.3337 9 6.3337 9 6.3337C9 6.3337 9 6.3337 9 6.33371C9 6.33371 9 6.33371 9 6.33371C9 6.33371 9 6.33371 9 6.33371C9 6.33371 9 6.33372 9 6.33372C9 6.33372 9 6.33372 9 6.33372C9 6.33372 9 6.33372 9 6.33372C9 6.33373 9 6.33373 9 6.33373C9 6.33373 9 6.33373 9 6.33373C9 6.33373 9 6.33373 9 6.33374C9 6.33374 9 6.33374 9 6.33374C9 6.33374 9 6.33374 9 6.33374C9 6.33375 9 6.33375 9 6.33375C9 6.33375 9 6.33375 9 6.33375C9 6.33375 9 6.33375 9 6.33376C9 6.33376 9 6.33376 9 6.33376C9 6.33376 9 6.33376 9 6.33376C9 6.33376 9 6.33377 9 6.33377C9 6.33377 9 6.33377 9 6.33377C9 6.33377 9 6.33377 9 6.33377C9 6.33378 9 6.33378 9 6.33378C9 6.33378 9 6.33378 9 6.33378C9 6.33378 9 6.33378 9 6.33379C9 6.33379 9 6.33379 9 6.33379C9 6.33379 9 6.33379 9 6.33379C9 6.3338 9 6.3338 9 6.3338C9 6.3338 9 6.3338 9 6.3338C9 6.3338 9 6.3338 9 6.33381C9 6.33381 9 6.33381 9 6.33381C9 6.33381 9 6.33381 9 6.33381C9 6.33381 9 6.33382 9 6.33382C9 6.33382 9 6.33382 9 6.33382C9 6.33382 9 6.33382 9 6.33382C9 6.33383 9 6.33383 9 6.33383C9 6.33383 9 6.33383 9 6.33383C9 6.33383 9 6.33383 9 6.33384C9 6.33384 9 6.33384 9 6.33384C9 6.33384 9 6.33384 9 6.33384C9 6.33385 9 6.33385 9 6.33385C9 6.33385 9 6.33385 9 6.33385C9 6.33385 9 6.33385 9 6.33386C9 6.33386 9 6.33386 9 6.33386C9 6.33386 9 6.33386 9 6.33386C9 6.33386 9 6.33387 9 6.33387C9 6.33387 9 6.33387 9 6.33387C9 6.33387 9 6.33387 9 6.33387C9 6.33388 9 6.33388 9 6.33388C9 6.33388 9 6.33388 9 6.33388C9 6.33388 9 6.33388 9 6.33389C9 6.33389 9 6.33389 9 6.33389C9 6.33389 9 6.33389 9 6.33389C9 6.3339 9 6.3339 9 6.3339C9 6.3339 9 6.3339 9 6.3339C9 6.3339 9 6.3339 9 6.33391C9 6.33391 9 6.33391 9 6.33391C9 6.33391 9 6.33391 9 6.33391C9 6.33391 9 6.33392 9 6.33392C9 6.33392 9 6.33392 9 6.33392C9 6.33392 9 6.33392 9 6.33392C9 6.33393 9 6.33393 9 6.33393C9 6.33393 9 6.33393 9 6.33393C9 6.33393 9 6.33393 9 6.33394C9 6.33394 9 6.33394 9 6.33394C9 6.33394 9 6.33394 9 6.33394C9 6.33395 9 6.33395 9 6.33395C9 6.33395 9 6.33395 9 6.33395C9 6.33395 9 6.33395 9 6.33396C9 6.33396 9 6.33396 9 6.33396C9 6.33396 9 6.33396 9 6.33396C9 6.33396 9 6.33397 9 6.33397C9 6.33397 9 6.33397 9 6.33397C9 6.33397 9 6.33397 9 6.33397C9 6.33398 9 6.33398 9 6.33398C9 6.33398 9 6.33398 9 6.33398C9 6.33398 9 6.33398 9 6.33399C9 6.33399 9 6.33399 9 6.33399C9 6.33399 9 6.33399 9 6.33399C9 6.334 9 6.334 9 6.334C9 6.334 9 6.334 9 6.334C9 6.334 9 6.334 9 6.33401C9 6.33401 9 6.33401 9 6.33401C9 6.33401 9 6.33401 9 6.33401C9 6.33401 9 6.33402 9 6.33402C9 6.33402 9 6.33402 9 6.33402C9 6.33402 9 6.33402 9 6.33402C9 6.33403 9 6.33403 9 6.33403C9 6.33403 9 6.33403 9 6.33403C9 6.33403 9 6.33403 9 6.33404C9 6.33404 9 6.33404 9 6.33404C9 6.33404 9 6.33404 9 6.33404C9 6.33404 9 6.33405 9 6.33405C9 6.33405 9 6.33405 9 6.33405C9 6.33405 9 6.33405 9 6.33406C9 6.33406 9 6.33406 9 6.33406C9 6.33406 9 6.33406 9 6.33406C9 6.33406 9 6.33407 9 6.33407C9 6.33407 9 6.33407 9 6.33407C9 6.33407 9 6.33407 9 6.33407C9 6.33408 9 6.33408 9 6.33408C9 6.33408 9 6.33408 9 6.33408C9 6.33408 9 6.33408 9 6.33409C9 6.33409 9 6.33409 9 6.33409C9 6.33409 9 6.33409 9 6.33409C9 6.33409 9 6.3341 9 6.3341C9 6.3341 9 6.3341 9 6.3341C9 6.3341 9 6.3341 9 6.33411C9 6.33411 9 6.33411 9 6.33411C9 6.33411 9 6.33411 9 6.33411C9 6.33411 9 6.33412 9 6.33412C9 6.33412 9 6.33412 9 6.33412C9 6.33412 9 6.33412 9 6.33412C9 6.33413 9 6.33413 9 6.33413C9 6.33413 9 6.33413 9 6.33413C9 6.33413 9 6.33413 9 6.33414C9 6.33414 9 6.33414 9 6.33414C9 6.33414 9 6.33414 9 6.33414C9 6.33414 9 6.33415 9 6.33415C9 6.33415 9 6.33415 9 6.33415C9 6.33415 9 6.33415 9 6.33416C9 6.33416 9 6.33416 9 6.33416C9 6.33416 9 6.33416 9 6.33416C9 6.33416 9 6.33417 9 6.33417C9 6.33417 9 6.33417 9 6.33417C9 6.33417 9 6.33417 9 6.33417C9 6.33418 9 6.33418 9 6.33418C9 6.33418 9 6.33418 9 6.33418C9 6.33418 9 6.33418 9 6.33419C9 6.33419 9 6.33419 9 6.33419C9 6.33419 9 6.33419 9 6.33419C9 6.33419 9 6.3342 9 6.3342C9 6.3342 9 6.3342 9 6.3342C9 6.3342 9 6.3342 9 6.33421C9 6.33421 9 6.33421 9 6.33421C9 6.33421 9 6.33421 9 6.33421C9 6.33421 9 6.33422 9 6.33422C9 6.33422 9 6.33422 9 6.33422C9 6.33422 9 6.33422 9 6.33422C9 6.33423 9 6.33423 9 6.33423C9 6.33423 9 6.33423 9 6.33423C9 6.33423 9 6.33423 9 6.33424C9 6.33424 9 6.33424 9 6.33424C9 6.33424 9 6.33424 9 6.33424C9 6.33424 9 6.33425 9 6.33425C9 6.33425 9 6.33425 9 6.33425C9 6.33425 9 6.33425 9 6.33426C9 6.33426 9 6.33426 9 6.33426C9 6.33426 9 6.33426 9 6.33426C9 6.33426 9 6.33427 9 6.33427C9 6.33427 9 6.33427 9 6.33427C9 6.33427 9 6.33427 9 6.33427C9 6.33428 9 6.33428 9 6.33428C9 6.33428 9 6.33428 9 6.33428C9 6.33428 9 6.33428 9 6.33429C9 6.33429 9 6.33429 9 6.33429C9 6.33429 9 6.33429 9 6.33429C9 6.33429 9 6.3343 9 6.3343C9 6.3343 9 6.3343 9 6.3343C9 6.3343 9 6.3343 9 6.33431C9 6.33431 9 6.33431 9 6.33431C9 6.33431 9 6.33431 9 6.33431C9 6.33431 9 6.33432 9 6.33432C9 6.33432 9 6.33432 9 6.33432C9 6.33432 9 6.33432 9 6.33432C9 6.33433 9 6.33433 9 6.33433C9 6.33433 9 6.33433 9 6.33433C9 6.33433 9 6.33433 9 6.33434C9 6.33434 9 6.33434 9 6.33434C9 6.33434 9 6.33434 9 6.33434C9 6.33434 9 6.33435 9 6.33435C9 6.33435 9 6.33435 9 6.33435C9 6.33435 9 6.33435 9 6.33436C9 6.33436 9 6.33436 9 6.33436C9 6.33436 9 6.33436 9 6.33436C9 6.33436 9 6.33437 9 6.33437C9 6.33437 9 6.33437 9 6.33437C9 6.33437 9 6.33437 9 6.33437C9 6.33438 9 6.33438 9 6.33438C9 6.33438 9 6.33438 9 6.33438C9 6.33438 9 6.33438 9 6.33439C9 6.33439 9 6.33439 9 6.33439C9 6.33439 9 6.33439 9 6.33439C9 6.33439 9 6.3344 9 6.3344C9 6.3344 9 6.3344 9 6.3344C9 6.3344 9 6.3344 9 6.33441C9 6.33441 9 6.33441 9 6.33441C9 6.33441 9 6.33441 9 6.33441C9 6.33441 9 6.33442 9 6.33442C9 6.33442 9 6.33442 9 6.33442C9 6.33442 9 6.33442 9 6.33442C9 6.33443 9 6.33443 9 6.33443C9 6.33443 9 6.33443 9 6.33443C9 6.33443 9 6.33443 9 6.33444C9 6.33444 9 6.33444 9 6.33444C9 6.33444 9 6.33444 9 6.33444C9 6.33444 9 6.33445 9 6.33445C9 6.33445 9 6.33445 9 6.33445C9 6.33445 9 6.33445 9 6.33446C9 6.33446 9 6.33446 9 6.33446C9 6.33446 9 6.33446 9 6.33446C9 6.33446 9 6.33447 9 6.33447C9 6.33447 9 6.33447 9 6.33447C9 6.33447 9 6.33447 9 6.33447C9 6.33448 9 6.33448 9 6.33448C9 6.33448 9 6.33448 9 6.33448C9 6.33448 9 6.33448 9 6.33449C9 6.33449 9 6.33449 9 6.33449C9 6.33449 9 6.33449 9 6.33449C9 6.33449 9 6.3345 9 6.3345C9 6.3345 9 6.3345 9 6.3345C9 6.3345 9 6.3345 9 6.33451C9 6.33451 9 6.33451 9 6.33451C9 6.33451 9 6.33451 9 6.33451C9 6.33451 9 6.33452 9 6.33452C9 6.33452 9 6.33452 9 6.33452C9 6.33452 9 6.33452 9 6.33452C9 6.33453 9 6.33453 9 6.33453C9 6.33453 9 6.33453 9 6.33453C9 6.33453 9 6.33453 9 6.33454C9 6.33454 9 6.33454 9 6.33454C9 6.33454 9 6.33454 9 6.33454C9 6.33454 9 6.33455 9 6.33455C9 6.33455 9 6.33455 9 6.33455C9 6.33455 9 6.33455 9 6.33455C9 6.33456 9 6.33456 9 6.33456C9 6.33456 9 6.33456 9 6.33456C9 6.33456 9 6.33457 9 6.33457C9 6.33457 9 6.33457 9 6.33457C9 6.33457 9 6.33457 9 6.33457C9 6.33458 9 6.33458 9 6.33458C9 6.33458 9 6.33458 9 6.33458C9 6.33458 9 6.33458 9 6.33459C9 6.33459 9 6.33459 9 6.33459C9 6.33459 9 6.33459 9 6.33459C9 6.33459 9 6.3346 9 6.3346C9 6.3346 9 6.3346 9 6.3346C9 6.3346 9 6.3346 9 6.3346C9 6.33461 9 6.33461 9 6.33461C9 6.33461 9 6.33461 9 6.33461C9 6.33461 9 6.33462 9 6.33462C9 6.33462 9 6.33462 9 6.33462C9 6.33462 9 6.33462 9 6.33462C9 6.33463 9 6.33463 9 6.33463C9 6.33463 9 6.33463 9 6.33463C9 6.33463 9 6.33463 9 6.33464C9 6.33464 9 6.33464 9 6.33464C9 6.33464 9 6.33464 9 6.33464C9 6.33464 9 6.33465 9 6.33465C9 6.33465 9 6.33465 9 6.33465C9 6.33465 9 6.33465 9 6.33465C9 6.33466 9 6.33466 9 6.33466C9 6.33466 9 6.33466 9 6.33466C9 6.33466 9 6.33467 9 6.33467C9 6.33467 9 6.33467 9 6.33467C9 6.33467 9 6.33467 9 6.33467C9 6.33468 9 6.33468 9 6.33468C9 6.33468 9 6.33468 9 6.33468C9 6.33468 9 6.33468 9 6.33469C9 6.33469 9 6.33469 9 6.33469C9 6.33469 9 6.33469 9 6.33469C9 6.33469 9 6.3347 9 6.3347C9 6.3347 9 6.3347 9 6.3347C9 6.3347 9 6.3347 9 6.3347C9 6.33471 9 6.33471 9 6.33471C9 6.33471 9 6.33471 9 6.33471C9 6.33471 9 6.33472 9 6.33472C9 6.33472 9 6.33472 9 6.33472C9 6.33472 9 6.33472 9 6.33472C9 6.33473 9 6.33473 9 6.33473C9 6.33473 9 6.33473 9 6.33473C9 6.33473 9 6.33473 9 6.33474C9 6.33474 9 6.33474 9 6.33474C9 6.33474 9 6.33474 9 6.33474C9 6.33474 9 6.33475 9 6.33475C9 6.33475 9 6.33475 9 6.33475C9 6.33475 9 6.33475 9 6.33475C9 6.33476 9 6.33476 9 6.33476C9 6.33476 9 6.33476 9 6.33476C9 6.33476 9 6.33477 9 6.33477C9 6.33477 9 6.33477 9 6.33477C9 6.33477 9 6.33477 9 6.33477C9 6.33478 9 6.33478 9 6.33478C9 6.33478 9 6.33478 9 6.33478C9 6.33478 9 6.33478 9 6.33479C9 6.33479 9 6.33479 9 6.33479C9 6.33479 9 6.33479 9 6.33479C9 6.33479 9 6.3348 9 6.3348C9 6.3348 9 6.3348 9 6.3348C9 6.3348 9 6.3348 9 6.3348C9 6.33481 9 6.33481 9 6.33481C9 6.33481 9 6.33481 9 6.33481C9 6.33481 9 6.33482 9 6.33482C9 6.33482 9 6.33482 9 6.33482C9 6.33482 9 6.33482 9 6.33482C9 6.33483 9 6.33483 9 6.33483C9 6.33483 9 6.33483 9 6.33483C9 6.33483 9 6.33483 9 6.33484C9 6.33484 9 6.33484 9 6.33484C9 6.33484 9 6.33484 9 6.33484C9 6.33484 9 6.33485 9 6.33485C9 6.33485 9 6.33485 9 6.33485C9 6.33485 9 6.33485 9 6.33485C9 6.33486 9 6.33486 9 6.33486C9 6.33486 9 6.33486 9 6.33486C9 6.33486 9 6.33487 9 6.33487C9 6.33487 9 6.33487 9 6.33487C9 6.33487 9 6.33487 9 6.33487C9 6.33488 9 6.33488 9 6.33488C9 6.33488 9 6.33488 9 6.33488C9 6.33488 9 6.33488 9 6.33489C9 6.33489 9 6.33489 9 6.33489C9 6.33489 9 6.33489 9 6.33489C9 6.33489 9 6.3349 9 6.3349C9 6.3349 9 6.3349 9 6.3349C9 6.3349 9 6.3349 9 6.3349C9 6.33491 9 6.33491 9 6.33491C9 6.33491 9 6.33491 9 6.33491C9 6.33491 9 6.33492 9 6.33492C9 6.33492 9 6.33492 9 6.33492C9 6.33492 9 6.33492 9 6.33492C9 6.33493 9 6.33493 9 6.33493C9 6.33493 9 6.33493 9 6.33493C9 6.33493 9 6.33493 9 6.33494C9 6.33494 9 6.33494 9 6.33494C9 6.33494 9 6.33494 9 6.33494C9 6.33494 9 6.33495 9 6.33495C9 6.33495 9 6.33495 9 6.33495C9 6.33495 9 6.33495 9 6.33495C9 6.33496 9 6.33496 9 6.33496C9 6.33496 9 6.33496 9 6.33496C9 6.33496 9 6.33497 9 6.33497C9 6.33497 9 6.33497 9 6.33497C9 6.33497 9 6.33497 9 6.33497C9 6.33498 9 6.33498 9 6.33498C9 6.33498 9 6.33498 9 6.33498C9 6.33498 9 6.33498 9 6.33499C9 6.33499 9 6.33499 9 6.33499C9 6.33499 9 6.33499 9 6.33499C9 6.33499 9 6.335 9 6.335C9 6.335 9 6.335 9 6.335C9 6.335 9 6.335 9 6.335C9 6.33501 9 6.33501 9 6.33501C9 6.33501 9 6.33501 9 6.33501C9 6.33501 9 6.33502 9 6.33502C9 6.33502 9 6.33502 9 6.33502C9 6.33502 9 6.33502 9 6.33502C9 6.33503 9 6.33503 9 6.33503C9 6.33503 9 6.33503 9 6.33503C9 6.33503 9 6.33503 9 6.33504C9 6.33504 9 6.33504 9 6.33504C9 6.33504 9 6.33504 9 6.33504C9 6.33504 9 6.33505 9 6.33505C9 6.33505 9 6.33505 9 6.33505C9 6.33505 9 6.33505 9 6.33505C9 6.33506 9 6.33506 9 6.33506C9 6.33506 9 6.33506 9 6.33506C9 6.33506 9 6.33507 9 6.33507C9 6.33507 9 6.33507 9 6.33507C9 6.33507 9 6.33507 9 6.33507C9 6.33508 9 6.33508 9 6.33508C9 6.33508 9 6.33508 9 6.33508C9 6.33508 9 6.33508 9 6.33509C9 6.33509 9 6.33509 9 6.33509C9 6.33509 9 6.33509 9 6.33509C9 6.33509 9 6.3351 9 6.3351C9 6.3351 9 6.3351 9 6.3351C9 6.3351 9 6.3351 9 6.3351C9 6.33511 9 6.33511 9 6.33511C9 6.33511 9 6.33511 9 6.33511C9 6.33511 9 6.33511 9 6.33512C9 6.33512 9 6.33512 9 6.33512C9 6.33512 9 6.33512 9 6.33512C9 6.33513 9 6.33513 9 6.33513C9 6.33513 9 6.33513 9 6.33513C9 6.33513 9 6.33513 9 6.33514C9 6.33514 9 6.33514 9 6.33514C9 6.33514 9 6.33514 9 6.33514C9 6.33514 9 6.33515 9 6.33515C9 6.33515 9 6.33515 9 6.33515C9 6.33515 9 6.33515 9 6.33515C9 6.33516 9 6.33516 9 6.33516C9 6.33516 9 6.33516 9 6.33516C9 6.33516 9 6.33516 9 6.33517C9 6.33517 9 6.33517 9 6.33517C9 6.33517 9 6.33517 9 6.33517C9 6.33518 9 6.33518 9 6.33518C9 6.33518 9 6.33518 9 6.33518C9 6.33518 9 6.33518 9 6.33519C9 6.33519 9 6.33519 9 6.33519C9 6.33519 9 6.33519 9 6.33519C9 6.33519 9 6.3352 9 6.3352C9 6.3352 9 6.3352 9 6.3352C9 6.3352 9 6.3352 9 6.3352C9 6.33521 9 6.33521 9 6.33521C9 6.33521 9 6.33521 9 6.33521C9 6.33521 9 6.33521 9 6.33522C9 6.33522 9 6.33522 9 6.33522C9 6.33522 9 6.33522 9 6.33522C9 6.33523 9 6.33523 9 6.33523C9 6.33523 9 6.33523 9 6.33523C9 6.33523 9 6.33523 9 6.33524C9 6.33524 9 6.33524 9 6.33524C9 6.33524 9 6.33524 9 6.33524C9 6.33524 9 6.33525 9 6.33525C9 6.33525 9 6.33525 9 6.33525C9 6.33525 9 6.33525 9 6.33525C9 6.33526 9 6.33526 9 6.33526C9 6.33526 9 6.33526 9 6.33526C9 6.33526 9 6.33526 9 6.33527C9 6.33527 9 6.33527 9 6.33527C9 6.33527 9 6.33527 9 6.33527C9 6.33528 9 6.33528 9 6.33528C9 6.33528 9 6.33528 9 6.33528C9 6.33528 9 6.33528 9 6.33529C9 6.33529 9 6.33529 9 6.33529C9 6.33529 9 6.33529 9 6.33529C9 6.33529 9 6.3353 9 6.3353C9 6.3353 9 6.3353 9 6.3353C9 6.3353 9 6.3353 9 6.3353C9 6.33531 9 6.33531 9 6.33531C9 6.33531 9 6.33531 9 6.33531H11C11 6.33531 11 6.33531 11 6.33531C11 6.33531 11 6.33531 11 6.3353C11 6.3353 11 6.3353 11 6.3353C11 6.3353 11 6.3353 11 6.3353C11 6.3353 11 6.33529 11 6.33529C11 6.33529 11 6.33529 11 6.33529C11 6.33529 11 6.33529 11 6.33529C11 6.33528 11 6.33528 11 6.33528C11 6.33528 11 6.33528 11 6.33528C11 6.33528 11 6.33528 11 6.33527C11 6.33527 11 6.33527 11 6.33527C11 6.33527 11 6.33527 11 6.33527C11 6.33526 11 6.33526 11 6.33526C11 6.33526 11 6.33526 11 6.33526C11 6.33526 11 6.33526 11 6.33525C11 6.33525 11 6.33525 11 6.33525C11 6.33525 11 6.33525 11 6.33525C11 6.33525 11 6.33524 11 6.33524C11 6.33524 11 6.33524 11 6.33524C11 6.33524 11 6.33524 11 6.33524C11 6.33523 11 6.33523 11 6.33523C11 6.33523 11 6.33523 11 6.33523C11 6.33523 11 6.33523 11 6.33522C11 6.33522 11 6.33522 11 6.33522C11 6.33522 11 6.33522 11 6.33522C11 6.33521 11 6.33521 11 6.33521C11 6.33521 11 6.33521 11 6.33521C11 6.33521 11 6.33521 11 6.3352C11 6.3352 11 6.3352 11 6.3352C11 6.3352 11 6.3352 11 6.3352C11 6.3352 11 6.33519 11 6.33519C11 6.33519 11 6.33519 11 6.33519C11 6.33519 11 6.33519 11 6.33519C11 6.33518 11 6.33518 11 6.33518C11 6.33518 11 6.33518 11 6.33518C11 6.33518 11 6.33518 11 6.33517C11 6.33517 11 6.33517 11 6.33517C11 6.33517 11 6.33517 11 6.33517C11 6.33516 11 6.33516 11 6.33516C11 6.33516 11 6.33516 11 6.33516C11 6.33516 11 6.33516 11 6.33515C11 6.33515 11 6.33515 11 6.33515C11 6.33515 11 6.33515 11 6.33515C11 6.33515 11 6.33514 11 6.33514C11 6.33514 11 6.33514 11 6.33514C11 6.33514 11 6.33514 11 6.33514C11 6.33513 11 6.33513 11 6.33513C11 6.33513 11 6.33513 11 6.33513C11 6.33513 11 6.33513 11 6.33512C11 6.33512 11 6.33512 11 6.33512C11 6.33512 11 6.33512 11 6.33512C11 6.33511 11 6.33511 11 6.33511C11 6.33511 11 6.33511 11 6.33511C11 6.33511 11 6.33511 11 6.3351C11 6.3351 11 6.3351 11 6.3351C11 6.3351 11 6.3351 11 6.3351C11 6.3351 11 6.33509 11 6.33509C11 6.33509 11 6.33509 11 6.33509C11 6.33509 11 6.33509 11 6.33509C11 6.33508 11 6.33508 11 6.33508C11 6.33508 11 6.33508 11 6.33508C11 6.33508 11 6.33508 11 6.33507C11 6.33507 11 6.33507 11 6.33507C11 6.33507 11 6.33507 11 6.33507C11 6.33507 11 6.33506 11 6.33506C11 6.33506 11 6.33506 11 6.33506C11 6.33506 11 6.33506 11 6.33505C11 6.33505 11 6.33505 11 6.33505C11 6.33505 11 6.33505 11 6.33505C11 6.33505 11 6.33504 11 6.33504C11 6.33504 11 6.33504 11 6.33504C11 6.33504 11 6.33504 11 6.33504C11 6.33503 11 6.33503 11 6.33503C11 6.33503 11 6.33503 11 6.33503C11 6.33503 11 6.33503 11 6.33502C11 6.33502 11 6.33502 11 6.33502C11 6.33502 11 6.33502 11 6.33502C11 6.33502 11 6.33501 11 6.33501C11 6.33501 11 6.33501 11 6.33501C11 6.33501 11 6.33501 11 6.335C11 6.335 11 6.335 11 6.335C11 6.335 11 6.335 11 6.335C11 6.335 11 6.33499 11 6.33499C11 6.33499 11 6.33499 11 6.33499C11 6.33499 11 6.33499 11 6.33499C11 6.33498 11 6.33498 11 6.33498C11 6.33498 11 6.33498 11 6.33498C11 6.33498 11 6.33498 11 6.33497C11 6.33497 11 6.33497 11 6.33497C11 6.33497 11 6.33497 11 6.33497C11 6.33497 11 6.33496 11 6.33496C11 6.33496 11 6.33496 11 6.33496C11 6.33496 11 6.33496 11 6.33495C11 6.33495 11 6.33495 11 6.33495C11 6.33495 11 6.33495 11 6.33495C11 6.33495 11 6.33494 11 6.33494C11 6.33494 11 6.33494 11 6.33494C11 6.33494 11 6.33494 11 6.33494C11 6.33493 11 6.33493 11 6.33493C11 6.33493 11 6.33493 11 6.33493C11 6.33493 11 6.33493 11 6.33492C11 6.33492 11 6.33492 11 6.33492C11 6.33492 11 6.33492 11 6.33492C11 6.33492 11 6.33491 11 6.33491C11 6.33491 11 6.33491 11 6.33491C11 6.33491 11 6.33491 11 6.3349C11 6.3349 11 6.3349 11 6.3349C11 6.3349 11 6.3349 11 6.3349C11 6.3349 11 6.33489 11 6.33489C11 6.33489 11 6.33489 11 6.33489C11 6.33489 11 6.33489 11 6.33489C11 6.33488 11 6.33488 11 6.33488C11 6.33488 11 6.33488 11 6.33488C11 6.33488 11 6.33488 11 6.33487C11 6.33487 11 6.33487 11 6.33487C11 6.33487 11 6.33487 11 6.33487C11 6.33487 11 6.33486 11 6.33486C11 6.33486 11 6.33486 11 6.33486C11 6.33486 11 6.33486 11 6.33485C11 6.33485 11 6.33485 11 6.33485C11 6.33485 11 6.33485 11 6.33485C11 6.33485 11 6.33484 11 6.33484C11 6.33484 11 6.33484 11 6.33484C11 6.33484 11 6.33484 11 6.33484C11 6.33483 11 6.33483 11 6.33483C11 6.33483 11 6.33483 11 6.33483C11 6.33483 11 6.33483 11 6.33482C11 6.33482 11 6.33482 11 6.33482C11 6.33482 11 6.33482 11 6.33482C11 6.33482 11 6.33481 11 6.33481C11 6.33481 11 6.33481 11 6.33481C11 6.33481 11 6.33481 11 6.3348C11 6.3348 11 6.3348 11 6.3348C11 6.3348 11 6.3348 11 6.3348C11 6.3348 11 6.33479 11 6.33479C11 6.33479 11 6.33479 11 6.33479C11 6.33479 11 6.33479 11 6.33479C11 6.33478 11 6.33478 11 6.33478C11 6.33478 11 6.33478 11 6.33478C11 6.33478 11 6.33478 11 6.33477C11 6.33477 11 6.33477 11 6.33477C11 6.33477 11 6.33477 11 6.33477C11 6.33477 11 6.33476 11 6.33476C11 6.33476 11 6.33476 11 6.33476C11 6.33476 11 6.33476 11 6.33475C11 6.33475 11 6.33475 11 6.33475C11 6.33475 11 6.33475 11 6.33475C11 6.33475 11 6.33474 11 6.33474C11 6.33474 11 6.33474 11 6.33474C11 6.33474 11 6.33474 11 6.33474C11 6.33473 11 6.33473 11 6.33473C11 6.33473 11 6.33473 11 6.33473C11 6.33473 11 6.33473 11 6.33472C11 6.33472 11 6.33472 11 6.33472C11 6.33472 11 6.33472 11 6.33472C11 6.33472 11 6.33471 11 6.33471C11 6.33471 11 6.33471 11 6.33471C11 6.33471 11 6.33471 11 6.3347C11 6.3347 11 6.3347 11 6.3347C11 6.3347 11 6.3347 11 6.3347C11 6.3347 11 6.33469 11 6.33469C11 6.33469 11 6.33469 11 6.33469C11 6.33469 11 6.33469 11 6.33469C11 6.33468 11 6.33468 11 6.33468C11 6.33468 11 6.33468 11 6.33468C11 6.33468 11 6.33468 11 6.33467C11 6.33467 11 6.33467 11 6.33467C11 6.33467 11 6.33467 11 6.33467C11 6.33467 11 6.33466 11 6.33466C11 6.33466 11 6.33466 11 6.33466C11 6.33466 11 6.33466 11 6.33465C11 6.33465 11 6.33465 11 6.33465C11 6.33465 11 6.33465 11 6.33465C11 6.33465 11 6.33464 11 6.33464C11 6.33464 11 6.33464 11 6.33464C11 6.33464 11 6.33464 11 6.33464C11 6.33463 11 6.33463 11 6.33463C11 6.33463 11 6.33463 11 6.33463C11 6.33463 11 6.33463 11 6.33462C11 6.33462 11 6.33462 11 6.33462C11 6.33462 11 6.33462 11 6.33462C11 6.33462 11 6.33461 11 6.33461C11 6.33461 11 6.33461 11 6.33461C11 6.33461 11 6.33461 11 6.3346C11 6.3346 11 6.3346 11 6.3346C11 6.3346 11 6.3346 11 6.3346C11 6.3346 11 6.33459 11 6.33459C11 6.33459 11 6.33459 11 6.33459C11 6.33459 11 6.33459 11 6.33459C11 6.33458 11 6.33458 11 6.33458C11 6.33458 11 6.33458 11 6.33458C11 6.33458 11 6.33458 11 6.33457C11 6.33457 11 6.33457 11 6.33457C11 6.33457 11 6.33457 11 6.33457C11 6.33457 11 6.33456 11 6.33456C11 6.33456 11 6.33456 11 6.33456C11 6.33456 11 6.33456 11 6.33455C11 6.33455 11 6.33455 11 6.33455C11 6.33455 11 6.33455 11 6.33455C11 6.33455 11 6.33454 11 6.33454C11 6.33454 11 6.33454 11 6.33454C11 6.33454 11 6.33454 11 6.33454C11 6.33453 11 6.33453 11 6.33453C11 6.33453 11 6.33453 11 6.33453C11 6.33453 11 6.33453 11 6.33452C11 6.33452 11 6.33452 11 6.33452C11 6.33452 11 6.33452 11 6.33452C11 6.33452 11 6.33451 11 6.33451C11 6.33451 11 6.33451 11 6.33451C11 6.33451 11 6.33451 11 6.33451C11 6.3345 11 6.3345 11 6.3345C11 6.3345 11 6.3345 11 6.3345C11 6.3345 11 6.33449 11 6.33449C11 6.33449 11 6.33449 11 6.33449C11 6.33449 11 6.33449 11 6.33449C11 6.33448 11 6.33448 11 6.33448C11 6.33448 11 6.33448 11 6.33448C11 6.33448 11 6.33448 11 6.33447C11 6.33447 11 6.33447 11 6.33447C11 6.33447 11 6.33447 11 6.33447C11 6.33447 11 6.33446 11 6.33446C11 6.33446 11 6.33446 11 6.33446C11 6.33446 11 6.33446 11 6.33446C11 6.33445 11 6.33445 11 6.33445C11 6.33445 11 6.33445 11 6.33445C11 6.33445 11 6.33444 11 6.33444C11 6.33444 11 6.33444 11 6.33444C11 6.33444 11 6.33444 11 6.33444C11 6.33443 11 6.33443 11 6.33443C11 6.33443 11 6.33443 11 6.33443C11 6.33443 11 6.33443 11 6.33442C11 6.33442 11 6.33442 11 6.33442C11 6.33442 11 6.33442 11 6.33442C11 6.33442 11 6.33441 11 6.33441C11 6.33441 11 6.33441 11 6.33441C11 6.33441 11 6.33441 11 6.33441C11 6.3344 11 6.3344 11 6.3344C11 6.3344 11 6.3344 11 6.3344C11 6.3344 11 6.33439 11 6.33439C11 6.33439 11 6.33439 11 6.33439C11 6.33439 11 6.33439 11 6.33439C11 6.33438 11 6.33438 11 6.33438C11 6.33438 11 6.33438 11 6.33438C11 6.33438 11 6.33438 11 6.33437C11 6.33437 11 6.33437 11 6.33437C11 6.33437 11 6.33437 11 6.33437C11 6.33437 11 6.33436 11 6.33436C11 6.33436 11 6.33436 11 6.33436C11 6.33436 11 6.33436 11 6.33436C11 6.33435 11 6.33435 11 6.33435C11 6.33435 11 6.33435 11 6.33435C11 6.33435 11 6.33434 11 6.33434C11 6.33434 11 6.33434 11 6.33434C11 6.33434 11 6.33434 11 6.33434C11 6.33433 11 6.33433 11 6.33433C11 6.33433 11 6.33433 11 6.33433C11 6.33433 11 6.33433 11 6.33432C11 6.33432 11 6.33432 11 6.33432C11 6.33432 11 6.33432 11 6.33432C11 6.33432 11 6.33431 11 6.33431C11 6.33431 11 6.33431 11 6.33431C11 6.33431 11 6.33431 11 6.33431C11 6.3343 11 6.3343 11 6.3343C11 6.3343 11 6.3343 11 6.3343C11 6.3343 11 6.33429 11 6.33429C11 6.33429 11 6.33429 11 6.33429C11 6.33429 11 6.33429 11 6.33429C11 6.33428 11 6.33428 11 6.33428C11 6.33428 11 6.33428 11 6.33428C11 6.33428 11 6.33428 11 6.33427C11 6.33427 11 6.33427 11 6.33427C11 6.33427 11 6.33427 11 6.33427C11 6.33427 11 6.33426 11 6.33426C11 6.33426 11 6.33426 11 6.33426C11 6.33426 11 6.33426 11 6.33426C11 6.33425 11 6.33425 11 6.33425C11 6.33425 11 6.33425 11 6.33425C11 6.33425 11 6.33424 11 6.33424C11 6.33424 11 6.33424 11 6.33424C11 6.33424 11 6.33424 11 6.33424C11 6.33423 11 6.33423 11 6.33423C11 6.33423 11 6.33423 11 6.33423C11 6.33423 11 6.33423 11 6.33422C11 6.33422 11 6.33422 11 6.33422C11 6.33422 11 6.33422 11 6.33422C11 6.33422 11 6.33421 11 6.33421C11 6.33421 11 6.33421 11 6.33421C11 6.33421 11 6.33421 11 6.33421C11 6.3342 11 6.3342 11 6.3342C11 6.3342 11 6.3342 11 6.3342C11 6.3342 11 6.33419 11 6.33419C11 6.33419 11 6.33419 11 6.33419C11 6.33419 11 6.33419 11 6.33419C11 6.33418 11 6.33418 11 6.33418C11 6.33418 11 6.33418 11 6.33418C11 6.33418 11 6.33418 11 6.33417C11 6.33417 11 6.33417 11 6.33417C11 6.33417 11 6.33417 11 6.33417C11 6.33417 11 6.33416 11 6.33416C11 6.33416 11 6.33416 11 6.33416C11 6.33416 11 6.33416 11 6.33416C11 6.33415 11 6.33415 11 6.33415C11 6.33415 11 6.33415 11 6.33415C11 6.33415 11 6.33414 11 6.33414C11 6.33414 11 6.33414 11 6.33414C11 6.33414 11 6.33414 11 6.33414C11 6.33413 11 6.33413 11 6.33413C11 6.33413 11 6.33413 11 6.33413C11 6.33413 11 6.33413 11 6.33412C11 6.33412 11 6.33412 11 6.33412C11 6.33412 11 6.33412 11 6.33412C11 6.33412 11 6.33411 11 6.33411C11 6.33411 11 6.33411 11 6.33411C11 6.33411 11 6.33411 11 6.33411C11 6.3341 11 6.3341 11 6.3341C11 6.3341 11 6.3341 11 6.3341C11 6.3341 11 6.33409 11 6.33409C11 6.33409 11 6.33409 11 6.33409C11 6.33409 11 6.33409 11 6.33409C11 6.33408 11 6.33408 11 6.33408C11 6.33408 11 6.33408 11 6.33408C11 6.33408 11 6.33408 11 6.33407C11 6.33407 11 6.33407 11 6.33407C11 6.33407 11 6.33407 11 6.33407C11 6.33407 11 6.33406 11 6.33406C11 6.33406 11 6.33406 11 6.33406C11 6.33406 11 6.33406 11 6.33406C11 6.33405 11 6.33405 11 6.33405C11 6.33405 11 6.33405 11 6.33405C11 6.33405 11 6.33404 11 6.33404C11 6.33404 11 6.33404 11 6.33404C11 6.33404 11 6.33404 11 6.33404C11 6.33403 11 6.33403 11 6.33403C11 6.33403 11 6.33403 11 6.33403C11 6.33403 11 6.33403 11 6.33402C11 6.33402 11 6.33402 11 6.33402C11 6.33402 11 6.33402 11 6.33402C11 6.33402 11 6.33401 11 6.33401C11 6.33401 11 6.33401 11 6.33401C11 6.33401 11 6.33401 11 6.33401C11 6.334 11 6.334 11 6.334C11 6.334 11 6.334 11 6.334C11 6.334 11 6.334 11 6.33399C11 6.33399 11 6.33399 11 6.33399C11 6.33399 11 6.33399 11 6.33399C11 6.33398 11 6.33398 11 6.33398C11 6.33398 11 6.33398 11 6.33398C11 6.33398 11 6.33398 11 6.33397C11 6.33397 11 6.33397 11 6.33397C11 6.33397 11 6.33397 11 6.33397C11 6.33397 11 6.33396 11 6.33396C11 6.33396 11 6.33396 11 6.33396C11 6.33396 11 6.33396 11 6.33396C11 6.33395 11 6.33395 11 6.33395C11 6.33395 11 6.33395 11 6.33395C11 6.33395 11 6.33395 11 6.33394C11 6.33394 11 6.33394 11 6.33394C11 6.33394 11 6.33394 11 6.33394C11 6.33393 11 6.33393 11 6.33393C11 6.33393 11 6.33393 11 6.33393C11 6.33393 11 6.33393 11 6.33392C11 6.33392 11 6.33392 11 6.33392C11 6.33392 11 6.33392 11 6.33392C11 6.33392 11 6.33391 11 6.33391C11 6.33391 11 6.33391 11 6.33391C11 6.33391 11 6.33391 11 6.33391C11 6.3339 11 6.3339 11 6.3339C11 6.3339 11 6.3339 11 6.3339C11 6.3339 11 6.3339 11 6.33389C11 6.33389 11 6.33389 11 6.33389C11 6.33389 11 6.33389 11 6.33389C11 6.33388 11 6.33388 11 6.33388C11 6.33388 11 6.33388 11 6.33388C11 6.33388 11 6.33388 11 6.33387C11 6.33387 11 6.33387 11 6.33387C11 6.33387 11 6.33387 11 6.33387C11 6.33387 11 6.33386 11 6.33386C11 6.33386 11 6.33386 11 6.33386C11 6.33386 11 6.33386 11 6.33386C11 6.33385 11 6.33385 11 6.33385C11 6.33385 11 6.33385 11 6.33385C11 6.33385 11 6.33385 11 6.33384C11 6.33384 11 6.33384 11 6.33384C11 6.33384 11 6.33384 11 6.33384C11 6.33383 11 6.33383 11 6.33383C11 6.33383 11 6.33383 11 6.33383C11 6.33383 11 6.33383 11 6.33382C11 6.33382 11 6.33382 11 6.33382C11 6.33382 11 6.33382 11 6.33382C11 6.33382 11 6.33381 11 6.33381C11 6.33381 11 6.33381 11 6.33381C11 6.33381 11 6.33381 11 6.33381C11 6.3338 11 6.3338 11 6.3338C11 6.3338 11 6.3338 11 6.3338C11 6.3338 11 6.3338 11 6.33379C11 6.33379 11 6.33379 11 6.33379C11 6.33379 11 6.33379 11 6.33379C11 6.33378 11 6.33378 11 6.33378C11 6.33378 11 6.33378 11 6.33378C11 6.33378 11 6.33378 11 6.33377C11 6.33377 11 6.33377 11 6.33377C11 6.33377 11 6.33377 11 6.33377C11 6.33377 11 6.33376 11 6.33376C11 6.33376 11 6.33376 11 6.33376C11 6.33376 11 6.33376 11 6.33376C11 6.33375 11 6.33375 11 6.33375C11 6.33375 11 6.33375 11 6.33375C11 6.33375 11 6.33375 11 6.33374C11 6.33374 11 6.33374 11 6.33374C11 6.33374 11 6.33374 11 6.33374C11 6.33373 11 6.33373 11 6.33373C11 6.33373 11 6.33373 11 6.33373C11 6.33373 11 6.33373 11 6.33372C11 6.33372 11 6.33372 11 6.33372C11 6.33372 11 6.33372 11 6.33372C11 6.33372 11 6.33371 11 6.33371C11 6.33371 11 6.33371 11 6.33371C11 6.33371 11 6.33371 11 6.33371C11 6.3337 11 6.3337 11 6.3337C11 6.3337 11 6.3337 11 6.3337C11 6.3337 11 6.3337 11 6.33369C11 6.33369 11 6.33369 11 6.33369C11 6.33369 11 6.33369 11 6.33369C11 6.33368 11 6.33368 11 6.33368C11 6.33368 11 6.33368 11 6.33368C11 6.33368 11 6.33368 11 6.33367C11 6.33367 11 6.33367 11 6.33367C11 6.33367 11 6.33367 11 6.33367C11 6.33367 11 6.33366 11 6.33366C11 6.33366 11 6.33366 11 6.33366C11 6.33366 11 6.33366 11 6.33366C11 6.33365 11 6.33365 11 6.33365C11 6.33365 11 6.33365 11 6.33365C11 6.33365 11 6.33365 11 6.33364C11 6.33364 11 6.33364 11 6.33364C11 6.33364 11 6.33364 11 6.33364C11 6.33363 11 6.33363 11 6.33363C11 6.33363 11 6.33363 11 6.33363C11 6.33363 11 6.33363 11 6.33362C11 6.33362 11 6.33362 11 6.33362C11 6.33362 11 6.33362 11 6.33362C11 6.33362 11 6.33361 11 6.33361C11 6.33361 11 6.33361 11 6.33361C11 6.33361 11 6.33361 11 6.33361C11 6.3336 11 6.3336 11 6.3336C11 6.3336 11 6.3336 11 6.3336C11 6.3336 11 6.3336 11 6.33359C11 6.33359 11 6.33359 11 6.33359C11 6.33359 11 6.33359 11 6.33359C11 6.33358 11 6.33358 11 6.33358C11 6.33358 11 6.33358 11 6.33358C11 6.33358 11 6.33358 11 6.33357C11 6.33357 11 6.33357 11 6.33357C11 6.33357 11 6.33357 11 6.33357C11 6.33357 11 6.33356 11 6.33356C11 6.33356 11 6.33356 11 6.33356C11 6.33356 11 6.33356 11 6.33356C11 6.33355 11 6.33355 11 6.33355C11 6.33355 11 6.33355 11 6.33355C11 6.33355 11 6.33355 11 6.33354C11 6.33354 11 6.33354 11 6.33354C11 6.33354 11 6.33354 11 6.33354C11 6.33353 11 6.33353 11 6.33353C11 6.33353 11 6.33353 11 6.33353C11 6.33353 11 6.33353 11 6.33352C11 6.33352 11 6.33352 11 6.33352C11 6.33352 11 6.33352 11 6.33352C11 6.33352 11 6.33351 11 6.33351C11 6.33351 11 6.33351 11 6.33351C11 6.33351 11 6.33351 11 6.33351C11 6.3335 11 6.3335 11 6.3335C11 6.3335 11 6.3335 11 6.3335C11 6.3335 11 6.3335 11 6.33349C11 6.33349 11 6.33349 11 6.33349C11 6.33349 11 6.33349 11 6.33349C11 6.33348 11 6.33348 11 6.33348C11 6.33348 11 6.33348 11 6.33348C11 6.33348 11 6.33348 11 6.33347C11 6.33347 11 6.33347 11 6.33347C11 6.33347 11 6.33347 11 6.33347C11 6.33347 11 6.33346 11 6.33346C11 6.33346 11 6.33346 11 6.33346C11 6.33346 11 6.33346 11 6.33346C11 6.33345 11 6.33345 11 6.33345C11 6.33345 11 6.33345 11 6.33345C11 6.33345 11 6.33345 11 6.33344C11 6.33344 11 6.33344 11 6.33344C11 6.33344 11 6.33344 11 6.33344C11 6.33343 11 6.33343 11 6.33343C11 6.33343 11 6.33343 11 6.33343C11 6.33343 11 6.33343 11 6.33342C11 6.33342 11 6.33342 11 6.33342C11 6.33342 11 6.33342 11 6.33342C11 6.33342 11 6.33341 11 6.33341C11 6.33341 11 6.33341 11 6.33341C11 6.33341 11 6.33341 11 6.33341C11 6.3334 11 6.3334 11 6.3334C11 6.3334 11 6.3334 11 6.3334C11 6.3334 11 6.3334 11 6.33339C11 6.33339 11 6.33339 11 6.33339C11 6.33339 11 6.33339 11 6.33339C11 6.33338 11 6.33338 11 6.33338C11 6.33338 11 6.33338 11 6.33338C11 6.33338 11 6.33338 11 6.33337C11 6.33337 11 6.33337 11 6.33337C11 6.33337 11 6.33337 11 6.33337C11 6.33337 11 6.33336 11 6.33336C11 6.33336 11 6.33336 11 6.33336C11 6.33336 11 6.33336 11 6.33336C11 6.33335 11 6.33335 11 6.33335C11 6.33335 11 6.33335 11 6.33335C11 6.33335 11 6.33335 11 6.33334H9ZM9 6.33531V6.33563H11V6.33531H9ZM9.00002 6.3428C9.00527 7.07415 9.59952 7.66669 10.3333 7.66669V5.66669C10.7006 5.66669 10.9974 5.96298 11 6.32845L9.00002 6.3428ZM10.3333 7.66669C11.0699 7.66669 11.6667 7.06988 11.6667 6.33334H9.66669C9.66669 5.96531 9.96531 5.66669 10.3333 5.66669V7.66669ZM11.6667 6.33334V6.32812H9.66669V6.33334H11.6667ZM11.6667 6.33523C11.6653 6.52044 11.517 6.66666 11.3333 6.66666V4.66666C10.4192 4.66666 9.67322 5.406 9.66671 6.32102L11.6667 6.33523ZM11.3333 6.66666C11.1486 6.66666 11 6.5181 11 6.33331H13C13 5.41353 12.2531 4.66666 11.3333 4.66666V6.66666ZM11 6.33331V7.33331H13V6.33331H11ZM11 7.33331C11 8.06985 11.5968 8.66666 12.3333 8.66666V6.66666C12.7014 6.66666 13 6.96528 13 7.33331H11ZM12.3333 8.66666C13.0699 8.66666 13.6667 8.06985 13.6667 7.33331H11.6667C11.6667 6.96527 11.9653 6.66666 12.3333 6.66666V8.66666ZM13.6667 7.33331C13.6667 7.5181 13.5181 7.66666 13.3333 7.66666V5.66666C12.4136 5.66666 11.6667 6.41353 11.6667 7.33331H13.6667ZM13.3333 7.66666C13.1486 7.66666 13 7.51813 13 7.33334H15C15 6.4135 14.2531 5.66666 13.3333 5.66666V7.66666ZM13 7.33334V11.6667H15V7.33334H13Z" fill="black" fill-opacity="0.2" mask="url(#path-1-inside-1_1_1143)"/>
</g>
<defs>
<filter id="filter0_d_1_1143" x="-2.66663" y="0" width="21.3333" height="24" filterUnits="userSpaceOnUse" color-interpolation-filters="sRGB">
<feFlood flood-opacity="0" result="BackgroundImageFix"/>
<feColorMatrix in="SourceAlpha" type="matrix" values="0 0 0 0 0 0 0 0 0 0 0 0 0 0 0 0 0 0 127 0" result="hardAlpha"/>
<feOffset dy="4"/>
<feGaussianBlur stdDeviation="2"/>
<feComposite in2="hardAlpha" operator="out"/>
<feColorMatrix type="matrix" values="0 0 0 0 0 0 0 0 0 0 0 0 0 0 0 0 0 0 0.25 0"/>
<feBlend mode="normal" in2="BackgroundImageFix" result="effect1_dropShadow_1_1143"/>
<feBlend mode="normal" in="SourceGraphic" in2="effect1_dropShadow_1_1143" result="shape"/>
</filter>
</defs>
</svg>
